<?xml version="1.0" standalone="no"?> <!DOCTYPE svg PUBLIC "-//W3C//DTD SVG 1.0//EN" "http://www.w3.org/TR/2001/REC-SVG-20010904/DTD/svg10.dtd" > <svg xmlns="http://www.w3.org/2000/svg" width="100%" height="100%">
<defs >
<font horiz-adv-x="411" ><font-face
    font-family="TWC Web Only"
    units-per-em="1000"
    panose-1="2 11 3 3 4 0 0 2 0 4"
    ascent="838"
    descent="-162"
    alphabetic="0" />
<missing-glyph horiz-adv-x="196" />
<glyph unicode=" " glyph-name="space" horiz-adv-x="196" />
<glyph unicode="!" glyph-name="exclam" horiz-adv-x="225" d="M134 162Q133 151 128 146T114 141H112Q104 141 99 146T92 162Q90 262 89 357Q88 397 88 440T87 526T86 606T86 676Q86 689 93 696T112 703H114Q125 703 132 696T140 676Q140 645 140 607T139 526T138
441T137 357Q135 262 134 162ZM151 34Q151 17 140 7T112 -4Q95 -4 85 6T74 34Q74 50 84 61T112 73Q129 73 140 62T151 34Z" />
<glyph unicode="&quot;" glyph-name="quotedbl" horiz-adv-x="211" d="M52 522Q36 522 35 540Q33 570 31 596Q29 619 28 641T27 676Q27 703 52 703H54Q79 703 79 676Q79 664 78 642T75 596Q73 570 71 540Q69 522 54 522H52ZM157 522Q141 522 140 540Q138 570 136
596Q134 619 133 641T132 676Q132 703 157 703H159Q184 703 184 676Q184 664 183 642T180 596Q178 570 176 540Q174 522 159 522H157Z" />
<glyph unicode="#" glyph-name="numbersign" horiz-adv-x="455" d="M171 428L153 300H284L303 428H171ZM285 19Q283 7 278 2T265 -3H262Q255 -3 249 2T244 25L277 254H146L112 19Q110 7 105 2T92 -3H89Q82 -3 76 2T71 25L105 254H41Q19 254 19 276V278Q19 300
41 300H111L130 428H67Q45 428 45 449V451Q45 471 67 471H136L166 681Q168 693 173 698T186 703H189Q196 703 202 698T207 675L177 471H308L339 681Q341 693 346 698T359 703H362Q369 703 375 698T380 675L350 471H414Q435 471 435 451V449Q435 428 414 428H344L325
300H389Q411 300 411 278V276Q411 254 389 254H319L285 19Z" />
<glyph unicode="$" glyph-name="dollar" horiz-adv-x="496" d="M266 704Q319 702 355 690T416 662Q438 647 438 628V627Q438 616 432 611T416 605Q405 605 396 613T372 631T332 650T266 661V383Q315 369 353 355T416 319T455 267T468 193Q468 145 454 110T412
50T348 13T265 -3V-84Q265 -95 259 -99T245 -104H243Q235 -104 229 -100T223 -84V-4Q162 -2 116 12T43 49Q22 65 22 83V84Q22 94 28 100T44 107Q54 107 64 97T93 74T142 50T223 38V343Q178 356 143 370T85 406T49 456T36 526Q36 598 83 647T224 703V748Q224 759
230 763T244 768H246Q254 768 260 764T266 748V704ZM417 189Q417 224 407 247T377 286T329 312T265 332V39Q334 45 375 80T417 189ZM86 530Q86 498 95 476T123 439T166 413T224 394V661Q152 654 119 618T86 530Z" />
<glyph unicode="%" glyph-name="percent" horiz-adv-x="717" d="M80 529Q80 463 108 428T184 393Q231 393 259 428T288 529Q288 596 260 632T184 668Q136 668 108 632T80 529ZM335 531Q335 487 323 455T290 401T242 368T184 357Q153 357 126 368T77 400T44 454T32
531Q32 574 44 606T77 660T125 693T184 704Q214 704 241 693T290 661T323 607T335 531ZM143 -23Q134 -37 123 -37H122Q111 -37 105 -27T108 -3L574 718Q583 732 594 732H595Q606 732 612 722T609 698L143 -23ZM429 169Q429 103 457 68T533 32Q580 32 608 67T637
169Q637 235 609 271T533 307Q485 307 457 271T429 169ZM684 170Q684 126 672 94T639 40T591 7T533 -4Q502 -4 475 7T426 39T393 93T381 170Q381 213 393 246T426 300T474 333T533 344Q563 344 590 333T639 301T672 246T684 170Z" />
<glyph unicode="&amp;" glyph-name="ampersand" horiz-adv-x="640" d="M575 -4Q567 -4 561 0T548 13L479 90Q444 48 391 22T269 -4Q211 -4 168 11T95 54T50 119T35 199Q35 241 48 274T83 332T135 376T198 407Q178 432 161 464T144 544Q144 580 157 609T193 660T250
692T323 704Q363 704 394 696T448 674Q471 660 471 644V643Q471 633 465 627T449 621Q437 621 428 627T405 641T373 655T324 662Q265 662 231 630T196 543Q196 505 216 470T277 390L476 167Q498 209 516 260T543 367Q545 377 550 384T567 392H569Q581 392 586 384T590
363Q579 303 558 243T506 132L591 37Q603 23 597 10T576 -4H575ZM90 200Q90 170 100 141T133 90T191 53T275 39Q335 39 377 61T450 122L225 376Q196 364 172 349T129 314T101 265T90 200Z" />
<glyph unicode="&apos;" glyph-name="quotesingle" horiz-adv-x="106" d="M52 522Q36 522 35 540Q33 570 31 596Q29 619 28 641T27 676Q27 703 52 703H54Q79 703 79 676Q79 664 78 642T75 596Q73 570 71 540Q69 522 54 522H52Z" />
<glyph unicode="(" glyph-name="parenleft" horiz-adv-x="272" d="M27 346Q27 433 45 497T90 608T151 685T214 734Q227 742 238 742Q248 742 253 736T259 721Q259 706 243 696T204 666Q184 649 162 624T122 561T92 471T80 346Q80 274 92 222T122 132T162 69T204
26Q226 7 242 -3T259 -29Q259 -38 254 -44T238 -50Q227 -50 214 -42Q184 -24 151 6T91 83T45 194T27 346Z" />
<glyph unicode=")" glyph-name="parenright" horiz-adv-x="272" d="M245 346Q245 259 227 195T182 84T121 7T58 -42Q45 -50 34 -50Q24 -50 19 -44T13 -29Q13 -14 29 -4T68 26Q88 43 110 68T150 131T180 221T192 346Q192 418 180 470T150 560T110 623T68 666Q46
685 30 695T13 721Q13 730 18 736T34 742Q45 742 58 734Q88 716 121 686T181 609T227 498T245 346Z" />
<glyph unicode="*" glyph-name="asterisk" horiz-adv-x="356" d="M237 423Q224 440 208 468T178 519Q164 496 148 468T119 423Q101 399 83 413L80 415Q64 429 80 451Q86 460 96 471T116 493T137 515T155 534Q144 536 130 539T101 545T72 552T49 559Q21 568 29
591L30 594Q38 613 64 604Q74 601 87 595T114 583T141 571T163 560Q162 571 161 586T158 617T155 648T154 674Q154 703 177 703H179Q202 703 202 674Q202 663 201 648T199 617T196 586T193 560Q213 569 242 583T292 604Q318 613 326 593L327 590Q335 568 307 559Q297
556 283 553T254 546T225 539T201 534Q208 526 218 516T239 494T260 471T276 451Q292 429 276 415L273 413Q255 399 237 423Z" />
<glyph unicode="+" glyph-name="plus" horiz-adv-x="471" d="M437 345Q437 336 432 330T416 323H262V156Q262 143 255 138T239 132H237Q227 132 220 137T213 156V323H56Q44 323 39 329T34 345V347Q34 355 39 361T56 368H213V536Q213 548 220 553T237 559H239Q248
559 255 554T262 536V368H416Q427 368 432 362T437 347V345Z" />
<glyph unicode="," glyph-name="comma" horiz-adv-x="142" d="M19 -64Q19 -57 23 -54T37 -46Q54 -39 59 -31T64 -13Q64 -4 59 0T48 8Q40 14 36 20T32 38Q32 53 42 63T70 73Q85 73 97 61T110 20Q110 -19 94 -44T42 -77Q19 -82 19 -65V-64Z" />
<glyph unicode="-" glyph-name="hyphen" horiz-adv-x="226" d="M42 276Q31 276 26 282T21 297V299Q21 307 26 313T42 320H184Q195 320 200 314T205 299V297Q205 289 200 283T184 276H42Z" />
<glyph unicode="." glyph-name="period" horiz-adv-x="142" d="M110 34Q110 17 99 7T71 -4Q54 -4 44 6T33 34Q33 50 43 61T71 73Q87 73 98 62T110 34Z" />
<glyph unicode="/" glyph-name="slash" horiz-adv-x="304" d="M59 -29Q52 -52 35 -52H34Q20 -52 15 -42T14 -16L241 721Q248 744 265 744H266Q280 744 285 734T286 708L59 -29Z" />
<glyph unicode="0" glyph-name="zero" horiz-adv-x="638" d="M601 350Q601 260 579 194T518 83T428 18T319 -4Q262 -4 211 17T121 83T60 193T37 350Q37 439 59 505T120 616T210 682T319 704Q376 704 427 682T517 616T578 506T601 350ZM91 349Q91 270 108 212T155
116T227 58T319 39Q368 39 410 58T482 115T529 212T546 349Q546 428 529 486T482 584T410 642T319 661Q269 661 227 642T155 584T108 487T91 349Z" />
<glyph unicode="1" glyph-name="one" horiz-adv-x="292" d="M197 23Q197 9 190 3T171 -3H169Q158 -3 151 3T143 23V642L46 585Q33 577 25 577Q17 577 11 583T5 598V599Q5 610 22 620L146 692Q155 697 161 699T175 702H177Q185 702 191 698T197 682V23Z" />
<glyph unicode="2" glyph-name="two" horiz-adv-x="499" d="M254 704Q354 704 405 655T456 519Q456 481 442 445T402 372T343 300T272 227L86 45H441Q452 45 457 39T462 23V22Q462 13 457 7T441 0H45Q33 0 28 7T23 23V28Q23 41 29 49T43 65L234 254Q272 291 303
325T357 391T391 455T403 519Q403 585 365 622T251 660Q205 660 177 649T130 625T99 600T74 589Q65 589 59 594T52 610V611Q52 617 55 624T68 639Q81 650 99 661T141 682T193 698T254 704Z" />
<glyph unicode="3" glyph-name="three" horiz-adv-x="488" d="M216 39Q308 39 354 82T400 201Q400 240 386 266T349 309T294 333T227 341H183Q171 341 166 347T161 363V364Q161 373 166 379T183 386H219Q294 386 339 420T385 524Q385 590 347 625T231 661Q186
661 159 652T114 633T87 614T64 605Q55 605 49 610T43 626V627Q43 633 47 640T63 656Q89 676 132 690T233 704Q332 704 384 660T436 527Q436 460 402 422T315 367V365Q376 351 415 312T454 200Q454 103 394 50T219 -4Q157 -4 109 13T34 53Q25 61 22 67T18 80V81Q18
91 24 97T40 104Q51 104 63 94T95 72T143 49T216 39Z" />
<glyph unicode="4" glyph-name="four" horiz-adv-x="538" d="M429 23Q429 9 422 3T403 -3H401Q390 -3 383 3T375 23V181H39Q27 181 22 187T16 204V208Q16 222 20 231T35 253L364 679Q372 690 379 695T401 700H403Q414 700 421 694T429 674V223H502Q513 223 517
217T522 203V201Q522 193 518 187T502 181H429V23ZM67 225V223H375V622H373L67 225Z" />
<glyph unicode="5" glyph-name="five" horiz-adv-x="503" d="M212 -4Q153 -4 111 10T39 47Q29 55 26 62T22 76V77Q22 86 28 92T44 99Q55 99 65 90T92 69T138 48T212 38Q306 38 360 90T414 234Q414 280 402 313T367 367T314 398T247 408Q206 408 180 397T136 373T105
348T77 337Q65 337 57 344T49 364V674Q49 685 55 692T75 700H414Q426 700 431 694T436 678V676Q436 667 431 661T414 654H92V391H95Q104 400 119 410T154 430T201 445T258 451Q300 451 338 439T405 400T451 334T468 237Q468 181 449 137T397 61T316 13T212 -4Z"
/>
<glyph unicode="6" glyph-name="six" horiz-adv-x="566" d="M355 704Q392 704 422 698T473 683Q484 678 490 672T497 654V653Q497 643 491 637T476 631Q467 631 458 636T436 646T404 657T353 662Q295 662 247 641T164 579T110 476T90 335V331Q128 374 188 400T314
426Q357 426 397 414T467 378T515 315T533 223Q533 170 516 128T467 57T392 12T297 -4Q243 -4 196 15T114 76T58 182T37 335Q37 426 61 495T127 610T228 680T355 704ZM303 384Q271 384 241 377T184 356T133 324T92 283Q97 217 114 171T158 95T220 52T297 38Q380
38 430 86T480 222Q480 265 467 296T430 346T374 375T303 384Z" />
<glyph unicode="7" glyph-name="seven" horiz-adv-x="494" d="M149 -3Q133 -3 126 10T129 43L431 652V654H47Q35 654 30 660T25 676V678Q25 687 30 693T47 700H447Q458 700 465 694T473 674V670Q473 648 462 626L177 17Q168 -3 150 -3H149Z" />
<glyph unicode="8" glyph-name="eight" horiz-adv-x="552" d="M276 -4Q217 -4 172 10T95 50T48 112T32 192Q32 226 43 256T75 309T123 349T182 373V375Q158 382 137 396T99 430T74 475T64 530Q64 569 79 601T121 656T188 691T276 704Q324 704 363 692T429 656T472
601T487 530Q487 501 478 476T453 430T416 396T370 375V373Q403 365 430 349T478 309T509 256T520 192Q520 148 504 112T457 51T381 11T276 -4ZM276 37Q324 37 360 48T420 81T456 131T468 194Q468 228 456 257T419 307T359 341T276 353Q228 353 192 341T132 308T96
257T84 194Q84 160 96 131T132 81T192 49T276 37ZM276 395Q352 395 393 431T435 528Q435 589 394 626T276 663Q199 663 158 626T117 528Q117 468 158 432T276 395Z" />
<glyph unicode="9" glyph-name="nine" horiz-adv-x="563" d="M249 274Q205 274 166 285T96 322T48 385T30 476Q30 529 47 571T96 643T171 688T266 704Q320 704 367 685T449 624T505 518T526 365Q526 274 504 205T440 90T339 20T207 -4Q167 -4 135 2T83 18Q61 29
61 46V47Q61 56 66 63T82 70Q91 70 100 65T123 54T157 43T209 38Q336 38 404 121T472 365V369Q434 325 374 300T249 274ZM260 316Q322 316 378 343T470 415Q465 481 448 528T404 604T342 648T266 662Q183 662 134 614T84 478Q84 434 97 404T134 354T190 325T260
316Z" />
<glyph unicode=":" glyph-name="colon" horiz-adv-x="148" d="M112 345Q112 329 101 318T74 307Q57 307 47 318T36 345Q36 362 46 373T74 384Q90 384 101 373T112 345ZM112 34Q112 17 101 7T74 -4Q57 -4 47 6T36 34Q36 50 46 61T74 73Q90 73 101 62T112 34Z" />
<glyph unicode=";" glyph-name="semicolon" horiz-adv-x="148" d="M112 345Q112 329 101 318T74 307Q57 307 47 318T36 345Q36 362 46 373T74 384Q90 384 101 373T112 345ZM22 -64Q22 -57 26 -54T40 -46Q57 -39 62 -31T67 -13Q67 -4 62 0T51 8Q43 14 39 20T35
38Q35 53 45 63T73 73Q88 73 100 61T113 20Q113 -20 97 -44T45 -77Q22 -82 22 -65V-64Z" />
<glyph unicode="&lt;" glyph-name="less" horiz-adv-x="459" d="M83 331V329L409 157Q427 147 427 134V133Q427 120 417 114T393 115L47 301Q39 305 34 311T28 328V331Q28 342 33 348T47 358L393 544Q406 551 416 545T427 526V525Q427 512 409 502L83 331Z" />
<glyph unicode="=" glyph-name="equal" horiz-adv-x="483" d="M453 397Q453 389 448 383T432 376H51Q40 376 35 382T30 397V399Q30 407 35 413T51 420H432Q443 420 448 414T453 399V397ZM453 230Q453 222 448 216T432 209H51Q40 209 35 215T30 230V232Q30 240
35 246T51 253H432Q443 253 448 247T453 232V230Z" />
<glyph unicode="&gt;" glyph-name="greater" horiz-adv-x="459" d="M50 502Q32 512 32 525V526Q32 539 42 545T66 544L412 358Q420 354 425 348T431 331V328Q431 317 426 311T412 301L66 115Q53 108 43 114T32 133V134Q32 147 50 157L376 329V331L50 502Z" />
<glyph unicode="?" glyph-name="question" horiz-adv-x="428" d="M208 34Q208 17 197 7T169 -4Q152 -4 142 6T131 34Q131 50 141 61T169 73Q185 73 196 62T208 34ZM213 662Q169 662 144 653T103 633T77 613T55 604Q46 604 41 610T35 627V628Q35 639 43 647T62
664Q88 681 124 692T214 704Q299 704 347 665T396 545Q396 510 385 483T356 432T314 386T265 339Q242 316 224 296T195 249Q188 232 187 210T185 162Q185 151 179 146T165 141H163Q155 141 149 146T142 162Q139 198 143 224T158 274T187 319T231 368Q249 386 268
404T304 444T331 491T342 547Q342 602 309 632T213 662Z" />
<glyph unicode="@" glyph-name="at" horiz-adv-x="857" d="M680 -53Q636 -85 568 -102T424 -119Q347 -119 277 -99T152 -35T66 78T33 245Q33 345 71 422T169 551T305 630T454 657Q530 657 597 636T715 575T795 474T824 335Q824 266 805 216T754 134T683 87T605
72Q577 72 558 79T528 99T512 126T508 159Q494 143 477 127T439 99T395 78T344 70Q294 70 262 102T230 198Q230 245 248 293T297 379T373 442T469 467Q509 467 532 457T572 432Q577 449 582 458T600 468H601Q610 468 614 462T616 444L558 199Q548 157 559 133T613
109Q643 109 672 121T726 160T765 230T780 335Q780 404 756 457T689 546T586 600T454 619Q386 619 319 596T199 525T112 408T78 245Q78 157 105 95T179 -6T289 -64T424 -82Q494 -82 538 -71T610 -45T653 -20T679 -8Q687 -8 692 -13T697 -25V-26Q697 -41 680 -53ZM276
198Q276 150 298 129T351 108Q377 108 399 116T440 139T478 172T513 208L558 400Q542 412 523 420T470 428Q430 428 395 408T333 356T292 282T276 198Z" />
<glyph unicode="A" glyph-name="A" horiz-adv-x="610" d="M576 36Q584 16 575 7T554 -3H553Q545 -3 538 2T526 22L455 219H152L83 25Q78 9 71 3T55 -3H54Q40 -3 33 6T34 36L265 672Q271 688 280 694T304 700H309Q323 700 332 694T348 672L576 36ZM168 263H440L305
641H303L168 263Z" />
<glyph unicode="B" glyph-name="B" horiz-adv-x="578" d="M138 44H298Q338 44 372 52T431 79T470 126T484 195Q484 235 470 263T431 310T369 336T286 345H138V44ZM138 389H280Q315 389 346 396T400 418T437 460T451 524Q451 563 438 588T401 629T347 650T282 656H138V389ZM111
0Q100 0 93 6T85 26V674Q85 688 92 694T111 700H283Q329 700 369 692T440 663T487 610T505 526Q505 490 496 465T469 421T430 391T381 370V369Q414 362 442 350T492 318T526 267T539 193Q539 142 522 106T472 46T396 11T299 0H111Z" />
<glyph unicode="C" glyph-name="C" horiz-adv-x="614" d="M351 -4Q284 -4 229 19T133 88T71 199T49 352Q49 438 73 504T140 614T238 681T357 704Q418 704 463 692T543 654Q558 643 564 634T570 617V616Q570 605 564 599T547 593Q534 593 522 603T491 627T441 650T360
661Q306 661 259 642T178 584T124 488T104 354Q104 277 121 218T171 119T249 59T352 39Q409 39 445 52T502 80T536 108T559 121Q569 121 575 115T582 99V98Q582 81 555 60Q520 33 471 15T351 -4Z" />
<glyph unicode="D" glyph-name="D" horiz-adv-x="665" d="M138 44H271Q347 44 403 60T496 114T551 209T569 350Q569 433 551 491T496 586T403 639T271 656H138V44ZM272 700Q359 700 424 681T534 619T601 511T624 351Q624 165 535 83T271 0H111Q100 0 93 6T85 26V674Q85
688 92 694T111 700H272Z" />
<glyph unicode="E" glyph-name="E" horiz-adv-x="549" d="M111 0Q100 0 93 6T85 26V674Q85 688 92 694T111 700H484Q492 700 498 695T505 679V677Q505 666 499 661T484 655H138V383H395Q403 383 409 378T416 362V360Q416 349 410 344T395 339H138V44H498Q506 44
512 39T519 23V21Q519 10 513 5T498 0H111Z" />
<glyph unicode="F" glyph-name="F" horiz-adv-x="535" d="M138 23Q138 9 131 3T113 -3H111Q100 -3 93 3T85 23V674Q85 688 92 694T111 700H484Q495 700 500 694T505 679V677Q505 668 500 662T484 655H138V365H390Q401 365 406 359T411 344V342Q411 334 406 328T390
321H138V23Z" />
<glyph unicode="G" glyph-name="G" horiz-adv-x="668" d="M594 80Q594 64 588 56T566 39Q532 22 484 9T363 -4Q289 -4 230 18T128 85T64 196T41 352Q41 440 66 506T136 616T240 682T368 704Q434 704 480 691T553 660Q564 652 568 645T573 628V627Q573 604 552
604Q541 604 531 613T501 632T451 652T368 661Q310 661 261 643T175 587T119 491T98 354Q98 195 167 117T363 39Q397 39 424 42T472 51T510 63T541 78V299H404Q393 299 388 305T383 320V322Q383 330 388 336T404 343H568Q582 343 588 336T594 317V80Z" />
<glyph unicode="H" glyph-name="H" horiz-adv-x="681" d="M138 23Q138 9 131 3T112 -3H111Q100 -3 93 3T85 23V677Q85 691 92 697T111 703H112Q123 703 130 697T138 677V383H543V677Q543 691 550 697T569 703H571Q581 703 588 697T596 677V23Q596 9 589 3T571
-3H569Q558 -3 551 3T543 23V339H138V23Z" />
<glyph unicode="I" glyph-name="I" horiz-adv-x="228" d="M87 677Q87 691 94 697T113 703H115Q126 703 133 697T141 677V23Q141 9 134 3T115 -3H113Q102 -3 95 3T87 23V677Z" />
<glyph unicode="J" glyph-name="J" horiz-adv-x="409" d="M328 160Q328 82 286 39T153 -5Q123 -5 95 0T43 17Q15 31 15 53V54Q15 64 21 70T38 77Q47 77 54 71T73 58T103 44T150 38Q215 38 244 69T274 161V677Q274 691 281 697T300 703H302Q313 703 320 697T328 677V160Z" />
<glyph unicode="K" glyph-name="K" horiz-adv-x="616" d="M111 -3Q100 -3 93 3T85 23V678Q85 691 92 697T111 703H112Q123 703 130 697T138 678V298L504 687Q519 703 530 703H531Q544 703 550 690T541 660L306 414L570 40Q582 23 575 10T553 -3H552Q538 -3 525
16L271 377L138 236V23Q138 9 131 3T112 -3H111Z" />
<glyph unicode="L" glyph-name="L" horiz-adv-x="537" d="M85 677Q85 691 92 697T111 703H112Q123 703 130 697T138 677V44H485Q493 44 499 39T506 23V21Q506 10 500 5T485 0H111Q100 0 93 7T85 26V677Z" />
<glyph unicode="M" glyph-name="M" horiz-adv-x="810" d="M633 674Q638 688 647 694T673 700H700Q711 700 718 694T726 673V23Q726 9 719 3T700 -3H698Q687 -3 680 3T672 23V636H667L430 16Q426 5 421 2T407 -2H401Q393 -2 387 1T377 16L139 636H135V21Q135 8
128 3T111 -3H109Q99 -3 92 2T85 21V673Q85 687 92 693T111 700H138Q155 700 164 694T178 674L406 81H408L633 674Z" />
<glyph unicode="N" glyph-name="N" horiz-adv-x="676" d="M137 629H135V22Q135 9 128 3T110 -3H109Q99 -3 92 3T85 22V673Q85 687 92 693T111 700H127Q142 700 150 694T167 675L540 96H541V678Q541 691 548 697T566 703H567Q578 703 585 697T592 678V25Q592 -2
566 -2H563Q549 -2 542 4T526 23L137 629Z" />
<glyph unicode="O" glyph-name="O" horiz-adv-x="710" d="M669 350Q669 264 644 198T576 87T477 19T356 -4Q291 -4 234 19T134 87T66 198T41 350Q41 436 66 502T134 613T234 681T356 704Q420 704 476 681T576 613T644 502T669 350ZM96 349Q96 272 116 214T171
117T253 58T356 38Q410 38 457 58T539 117T594 214T614 349Q614 426 594 484T540 582T458 642T356 662Q301 662 254 642T171 583T116 485T96 349Z" />
<glyph unicode="P" glyph-name="P" horiz-adv-x="550" d="M138 656V336H266Q360 336 410 372T461 498Q461 543 448 573T409 622T347 648T266 656H138ZM85 674Q85 688 92 694T111 700H267Q323 700 369 690T447 656T497 594T515 500Q515 443 498 404T449 340T370
304T266 293H138V23Q138 9 131 3T112 -3H110Q99 -3 92 3T85 23V674Z" />
<glyph unicode="Q" glyph-name="Q" horiz-adv-x="714" d="M660 -91Q654 -91 648 -90T635 -87L309 -5Q248 10 199 38T114 110T60 213T41 350Q41 436 66 502T134 613T234 681T356 704Q420 704 476 681T576 613T644 502T669 350Q669 275 650 216T597 113T517 43T418
7V5L661 -42Q684 -46 684 -66V-67Q684 -78 678 -84T660 -91ZM96 349Q96 272 116 214T171 116T254 57T357 37Q412 37 459 57T540 116T594 213T614 349Q614 427 594 485T540 583T458 642T356 662Q301 662 254 642T171 583T116 486T96 349Z" />
<glyph unicode="R" glyph-name="R" horiz-adv-x="598" d="M525 -3Q510 -3 499 17L335 320Q306 317 274 317H141V23Q141 9 134 3T115 -3H113Q102 -3 95 3T87 23V674Q87 688 94 694T113 700H274Q327 700 371 690T447 658T496 599T514 510Q514 434 481 391T387 331L546
36Q555 19 547 8T526 -3H525ZM141 656V360H272Q316 360 351 367T410 390T447 435T460 508Q460 550 446 578T408 624T349 649T272 656H141Z" />
<glyph unicode="S" glyph-name="S" horiz-adv-x="508" d="M238 -4Q172 -4 122 11T43 49Q22 65 22 83V84Q22 94 28 100T44 107Q55 107 65 97T95 73T148 50T237 39Q277 39 310 47T368 74T405 120T418 189Q418 228 404 252T365 292T307 318T236 339Q189 351 153 366T91
402T52 453T39 526Q39 564 52 596T93 653T159 690T250 704Q310 704 350 692T416 662Q438 647 438 628V627Q438 616 432 611T416 605Q405 605 395 613T369 632T325 652T251 661Q208 661 178 651T128 624T99 582T90 530Q90 494 102 471T135 432T185 406T251 387Q304
373 345 358T413 322T455 270T470 193Q470 142 453 105T405 44T332 8T238 -4Z" />
<glyph unicode="T" glyph-name="T" horiz-adv-x="553" d="M39 656Q31 656 25 661T18 677V679Q18 690 24 695T39 700H514Q522 700 528 695T535 679V677Q535 666 529 661T514 656H304V23Q304 9 297 3T278 -3H276Q265 -3 258 3T250 23V656H39Z" />
<glyph unicode="U" glyph-name="U" horiz-adv-x="672" d="M593 237Q593 171 574 125T520 51T440 9T339 -4Q285 -4 238 9T156 50T101 125T80 237V677Q80 691 87 697T106 703H107Q118 703 125 697T133 677V235Q133 179 149 142T194 82T261 50T342 40Q383 40 419
49T483 80T525 140T541 235V678Q541 691 548 697T566 703H568Q579 703 586 697T593 678V237Z" />
<glyph unicode="V" glyph-name="V" horiz-adv-x="606" d="M33 663Q25 683 34 693T55 703H56Q63 703 70 699T83 679L304 66H306L524 677Q534 703 551 703H552Q565 703 573 693T573 663L342 27Q336 11 329 5T305 -2H301Q284 -2 277 4T264 27L33 663Z" />
<glyph unicode="W" glyph-name="W" horiz-adv-x="867" d="M437 608H435L271 22Q267 8 260 3T237 -3H233Q204 -3 199 23L35 668Q31 683 38 693T60 703H61Q80 703 86 680L236 85H239L406 679Q413 703 435 703H438Q460 703 467 679L635 85H638L788 680Q794 703 813
703H814Q828 703 835 694T839 670L672 25Q668 11 661 4T637 -3H633Q616 -3 609 4T597 25L437 608Z" />
<glyph unicode="X" glyph-name="X" horiz-adv-x="597" d="M86 16Q73 -3 62 -3H61Q48 -3 40 8T43 36L266 364L61 661Q50 677 56 690T79 703H80Q88 703 94 698T105 684L301 402L492 685Q504 703 516 703H517Q530 703 538 692T535 664L331 363L551 39Q562 23 556
10T533 -3H532Q524 -3 518 2T507 16L296 327L86 16Z" />
<glyph unicode="Y" glyph-name="Y" horiz-adv-x="548" d="M302 295V23Q302 9 295 3T276 -3H274Q263 -3 256 3T248 23V293L33 663Q24 679 31 691T53 703H54Q69 703 79 684L275 343H277L474 686Q479 694 484 698T497 703H498Q512 703 519 693T518 667L302 295Z" />
<glyph unicode="Z" glyph-name="Z" horiz-adv-x="530" d="M75 44V42H482Q493 42 497 36T502 22V20Q502 12 498 6T482 0H39Q27 0 22 7T17 23V28Q17 41 20 48T30 64L453 656V657H61Q50 657 46 663T41 678V680Q41 688 45 694T62 700H488Q500 700 505 693T510 677V672Q510
658 507 651T497 635L75 44Z" />
<glyph unicode="[" glyph-name="bracketleft" horiz-adv-x="271" d="M101 -49Q90 -49 83 -43T75 -23V715Q75 729 82 735T101 741H233Q243 741 247 736T252 722V720Q252 712 248 707T233 701H125V-9H233Q243 -9 247 -14T252 -28V-30Q252 -38 248 -43T233 -49H101Z" />
<glyph unicode="\" glyph-name="backslash" horiz-adv-x="304" d="M18 708Q13 724 18 734T38 744H39Q56 744 63 721L290 -16Q295 -32 290 -42T270 -52H269Q252 -52 245 -29L18 708Z" />
<glyph unicode="]" glyph-name="bracketright" horiz-adv-x="271" d="M38 -49Q28 -49 24 -44T19 -30V-28Q19 -20 23 -15T38 -9H146V701H38Q28 701 24 706T19 720V722Q19 730 23 735T38 741H170Q181 741 188 735T196 715V-23Q196 -37 189 -43T170 -49H38Z" />
<glyph unicode="^" glyph-name="asciicircum" horiz-adv-x="907" d="M495 219Q519 219 541 229T580 256T608 296T618 344Q618 376 605 404T568 454T513 488T446 501Q401 501 362 485T294 440T249 375T232 294Q232 237 255 187T318 97T412 33T530 0Q552 -2 552
-24Q552 -37 544 -44T524 -49Q452 -41 390 -12T281 64T209 169T182 294Q182 347 202 393T259 475T343 530T446 550Q492 550 532 534T602 489T649 424T667 344Q667 321 660 298T636 254Q685 283 726 322T802 410Q769 457 728 495T641 559T546 600T446 615Q388 615
335 599T236 552T150 480T80 386Q75 378 66 375T46 377Q36 382 34 391T37 410Q69 468 112 515T208 595T321 646T446 664Q506 664 565 646T679 594T779 514T861 410Q826 356 782 312T690 236T593 188T495 171Q461 171 431 182T379 214T343 262T330 320Q330 344 339
364T364 400T401 425T446 434Q486 434 515 409T551 346Q553 336 548 326T526 316Q506 316 503 337Q499 358 483 371T446 385Q418 385 399 366T380 320Q380 299 389 281T414 249T450 227T495 219Z" />
<glyph unicode="_" glyph-name="underscore" horiz-adv-x="326" d="M332 -144Q332 -152 328 -157T314 -162H13Q2 -162 -2 -157T-6 -144V-142Q-6 -123 13 -123H314Q332 -123 332 -142V-144Z" />
<glyph unicode="`" glyph-name="grave" horiz-adv-x="412" d="M118 664Q104 680 110 694T132 708H133Q142 708 148 703T163 686L223 598Q231 587 226 578T210 569H209Q201 569 192 579L118 664Z" />
<glyph unicode="a" glyph-name="a" horiz-adv-x="491" d="M374 71Q341 36 301 16T196 -5Q160 -5 129 5T76 34T41 81T28 146Q28 185 43 214T86 262T152 290T237 299Q311 299 374 283V377Q374 438 339 462T246 487Q200 487 174 480T131 464T105 448T83 440Q75 440
69 445T62 461V462Q62 469 68 478T96 497Q125 511 162 519T248 527Q288 527 320 519T376 494T411 449T424 380V21Q424 -3 402 -3H401Q387 -3 381 7T374 46V71ZM203 34Q266 34 304 58T374 119V247Q344 254 311 258T240 263Q205 263 176 257T125 237T91 202T79 150Q79
88 114 61T203 34Z" />
<glyph unicode="b" glyph-name="b" horiz-adv-x="552" d="M121 48Q121 19 114 8T94 -3H93Q71 -3 71 21V679Q71 703 93 703H94Q108 703 114 694T121 657V428Q136 446 156 463T201 495T255 518T319 527Q356 527 392 515T456 472T501 392T519 267Q519 190 499 138T448
55T376 10T296 -4Q233 -4 192 13T121 57V48ZM286 35Q318 35 350 45T409 81T451 151T468 263Q468 330 454 373T417 441T366 476T311 486Q279 486 252 477T202 453T158 419T121 379V104Q152 70 190 53T286 35Z" />
<glyph unicode="c" glyph-name="c" horiz-adv-x="478" d="M434 45Q407 22 367 9T276 -4Q219 -4 174 14T97 67T49 151T32 262Q32 324 50 373T101 456T179 509T279 527Q367 527 419 492Q442 476 442 459V458Q442 449 436 443T421 437Q411 437 402 445T379 462T341
479T278 487Q234 487 199 472T137 428T97 357T83 262Q83 154 134 95T278 36Q320 36 345 45T386 65T411 86T431 95Q441 95 446 89T451 75V74Q451 59 434 45Z" />
<glyph unicode="d" glyph-name="d" horiz-adv-x="554" d="M430 90Q398 50 350 23T239 -4Q200 -4 163 9T97 53T51 133T33 256Q33 332 53 383T104 467T176 513T256 527Q318 527 359 510T430 462V678Q430 703 453 703H454Q468 703 474 694T481 657V21Q481 -3 459
-3H458Q444 -3 437 7T430 46V90ZM244 35Q308 35 352 65T430 141V417Q399 450 361 469T264 488Q231 488 199 478T141 441T100 371T84 258Q84 193 98 150T134 82T186 46T244 35Z" />
<glyph unicode="e" glyph-name="e" horiz-adv-x="507" d="M281 37Q326 37 354 45T399 63T426 81T445 90Q466 90 466 71V70Q466 62 461 55T447 43Q420 24 380 10T276 -4Q217 -4 172 14T95 67T48 149T32 259Q32 320 49 370T97 454T170 508T263 527Q311 527 350 513T418
469T461 393T477 283Q477 270 470 265T453 259H83Q83 149 133 93T281 37ZM427 297Q425 401 381 445T263 489Q191 489 142 442T84 297H427Z" />
<glyph unicode="f" glyph-name="f" horiz-adv-x="268" d="M28 483Q17 483 13 488T8 501V503Q8 511 12 516T28 521H80V573Q80 641 114 672T202 703Q230 703 247 699Q259 696 263 691T268 679V678Q268 658 245 660Q239 660 230 661T214 662Q173 662 152 643T130
570V521H239Q250 521 254 516T259 503V501Q259 493 255 488T239 483H130V21Q130 8 123 3T106 -3H104Q94 -3 87 2T80 21V483H28Z" />
<glyph unicode="g" glyph-name="g" horiz-adv-x="552" d="M430 96Q397 57 349 31T237 4Q199 4 163 17T97 61T51 140T33 260Q33 334 53 385T104 467T176 513T257 527Q317 527 359 510T430 463Q430 499 437 511T458 524H459Q481 524 481 500V6Q481 -37 464 -69T416
-123T346 -155T260 -166Q206 -166 159 -156T80 -129Q60 -118 60 -103V-102Q60 -94 65 -88T80 -81Q90 -81 101 -88T130 -104T178 -120T254 -127Q290 -127 322 -120T378 -96T416 -54T430 9V96ZM244 43Q307 43 352 73T430 148V416Q398 450 360 469T266 488Q234 488
202 478T143 443T101 374T84 262Q84 198 98 156T134 88T186 53T244 43Z" />
<glyph unicode="h" glyph-name="h" horiz-adv-x="551" d="M485 21Q485 8 478 3T461 -3H459Q449 -3 442 2T435 21V382Q435 413 427 433T405 464T372 480T331 485Q273 485 220 458T121 397V21Q121 8 114 3T97 -3H95Q85 -3 78 2T71 21V679Q71 703 93 703H94Q108 703
114 694T121 657V438Q166 473 223 500T350 527Q377 527 401 521T444 499T474 456T485 388V21Z" />
<glyph unicode="i" glyph-name="i" horiz-adv-x="197" d="M133 635Q133 621 123 611T99 601Q85 601 75 611T65 635Q65 649 75 659T99 669Q113 669 123 659T133 635ZM123 21Q123 8 116 3T99 -3H97Q87 -3 80 2T73 21V500Q73 524 95 524H96Q110 524 116 515T123 478V21Z" />
<glyph unicode="j" glyph-name="j" horiz-adv-x="197" d="M73 500Q73 524 95 524H96Q110 524 116 515T123 478V-54Q123 -111 96 -137T18 -164Q14 -164 8 -164T-5 -163Q-27 -160 -27 -144V-142Q-27 -133 -21 -129T-6 -124Q41 -122 57 -106T73 -52V500ZM133 635Q133
621 123 611T99 601Q85 601 75 611T65 635Q65 649 75 659T99 669Q113 669 123 659T133 635Z" />
<glyph unicode="k" glyph-name="k" horiz-adv-x="474" d="M94 703Q108 703 114 694T121 657V226L385 510Q397 524 408 524H409Q415 524 420 521T427 512T429 500T421 486L248 304L439 35Q449 21 442 9T421 -3H420Q412 -3 407 1T396 14L215 270L121 169V21Q121
8 114 3T97 -3H95Q85 -3 78 2T71 21V679Q71 703 93 703H94V703Z" />
<glyph unicode="l" glyph-name="l" horiz-adv-x="194" d="M122 21Q122 8 115 3T98 -3H96Q86 -3 79 2T72 21V679Q72 703 94 703H95Q109 703 115 694T122 657V21Z" />
<glyph unicode="m" glyph-name="m" horiz-adv-x="858" d="M407 386Q407 415 400 434T380 464T350 480T311 485Q254 485 208 460T121 400V21Q121 8 114 3T97 -3H95Q85 -3 78 2T71 21V500Q71 524 93 524H94Q108 524 114 515T121 478V442Q140 457 162 472T211 499T266
519T329 527Q371 527 406 507T453 441Q493 475 546 501T663 527Q690 527 713 520T754 498T782 459T792 399V21Q792 8 785 3T768 -3H766Q756 -3 749 2T742 21V386Q742 444 716 464T645 485Q617 485 592 478T544 459T499 432T457 401V21Q457 8 450 3T433 -3H431Q421
-3 414 2T407 21V386Z" />
<glyph unicode="n" glyph-name="n" horiz-adv-x="551" d="M485 21Q485 8 478 3T461 -3H459Q449 -3 442 2T435 21V382Q435 413 427 433T405 464T372 480T331 485Q273 485 220 458T121 397V21Q121 8 114 3T97 -3H95Q85 -3 78 2T71 21V500Q71 524 93 524H94Q108 524
114 515T121 478V438Q166 473 223 500T350 527Q377 527 401 521T444 499T474 456T485 388V21Z" />
<glyph unicode="o" glyph-name="o" horiz-adv-x="549" d="M517 261Q517 199 500 150T450 67T374 14T274 -4Q220 -4 176 14T99 66T50 150T32 261Q32 322 49 371T99 455T175 508T274 527Q329 527 373 509T450 456T499 372T517 261ZM83 261Q83 153 134 94T274 35Q364
35 415 94T466 261Q466 368 415 428T274 488Q185 488 134 428T83 261Z" />
<glyph unicode="p" glyph-name="p" horiz-adv-x="552" d="M71 500Q71 524 93 524H94Q108 524 114 515T121 478V428Q136 446 156 463T201 495T255 518T319 527Q356 527 392 515T456 473T501 394T519 269Q519 192 499 140T448 57T376 12T295 -1Q232 -1 192 16T121
60V-141Q121 -154 114 -159T97 -165H95Q85 -165 78 -160T71 -141V500ZM311 486Q279 486 252 477T202 453T158 419T121 379V108Q152 74 190 57T286 39Q318 39 350 49T409 84T451 152T468 264Q468 331 454 374T417 442T366 476T311 486Z" />
<glyph unicode="q" glyph-name="q" horiz-adv-x="552" d="M430 93Q398 53 350 26T239 -1Q200 -1 163 12T97 55T51 134T33 257Q33 333 53 384T104 467T176 513T256 527Q318 527 359 510T430 462V478Q430 506 437 515T458 524H459Q481 524 481 500V-141Q481 -154
474 -159T457 -165H454Q444 -165 437 -160T430 -141V93ZM244 39Q308 39 352 69T430 144V416Q398 450 360 469T264 488Q231 488 199 478T141 442T100 372T84 260Q84 195 98 152T134 84T186 49T244 39Z" />
<glyph unicode="r" glyph-name="r" horiz-adv-x="341" d="M121 431Q152 469 194 497T292 525Q306 525 312 519T319 504V503Q319 484 292 481Q265 478 243 472T201 454T162 426T121 384V21Q121 8 114 3T97 -3H95Q85 -3 78 2T71 21V500Q71 524 93 524H94Q108 524
114 515T121 478V431Z" />
<glyph unicode="s" glyph-name="s" horiz-adv-x="425" d="M391 151Q391 79 346 38T202 -4Q155 -4 120 5T58 30Q33 45 33 62V63Q33 72 38 78T54 84Q62 84 71 77T96 60T136 43T200 35Q272 35 307 64T342 147Q342 170 335 186T312 215T269 235T202 250Q127 262 83
292T39 389Q39 457 87 492T214 527Q251 527 283 521T339 502Q365 489 365 472V470Q365 449 346 449Q338 449 331 455T310 468T274 482T215 488Q86 488 86 393Q86 370 93 354T116 327T158 307T222 293Q263 287 294 277T347 251T380 210T391 151Z" />
<glyph unicode="t" glyph-name="t" horiz-adv-x="295" d="M203 -4Q143 -4 112 23T80 113V483H28Q17 483 13 488T8 501V503Q8 511 12 516T28 521H80V645Q80 658 87 663T104 669H106Q116 669 123 664T130 645V521H252Q263 521 267 516T272 503V501Q272 493 268 488T252
483H130V119Q130 71 152 54T220 37Q227 37 239 38T258 40Q280 40 280 21V20Q280 4 259 0Q248 -2 234 -3T203 -4Z" />
<glyph unicode="u" glyph-name="u" horiz-adv-x="547" d="M207 -6Q177 -6 151 1T107 23T77 65T66 130V500Q66 513 73 518T90 524H93Q103 524 110 519T117 500V135Q117 105 124 86T145 55T175 40T214 35Q274 35 326 60T424 118V500Q424 513 431 518T448 524H450Q460
524 467 519T474 500V21Q474 -3 452 -3H451Q437 -3 431 7T424 46V76Q380 43 324 19T207 -6Z" />
<glyph unicode="v" glyph-name="v" horiz-adv-x="495" d="M280 20Q275 7 269 3T249 -2H248Q235 -2 229 2T217 20L32 485Q24 503 31 513T53 524H54Q69 524 78 501L249 68H251L421 501Q430 524 445 524H446Q458 524 464 515T464 488L280 20Z" />
<glyph unicode="w" glyph-name="w" horiz-adv-x="726" d="M365 443H363L230 19Q225 6 219 2T201 -3H200Q188 -3 182 2T170 20L30 489Q25 505 32 514T52 524H53Q60 524 66 519T77 500L201 80H203L339 504Q345 524 365 524H369Q388 524 394 504L524 80H526L653 502Q660
524 676 524H677Q689 524 695 516T697 491L555 20Q551 6 545 2T527 -3H526Q514 -3 508 1T497 19L365 443Z" />
<glyph unicode="x" glyph-name="x" horiz-adv-x="479" d="M202 271L42 486Q37 493 37 500T40 512T48 521T59 524H60Q72 524 84 508L236 303L375 509Q385 524 397 524H398Q410 524 417 512T413 485L268 272L442 35Q453 20 445 9T425 -3H424Q412 -3 400 13L234 241L76
12Q65 -3 54 -3H53Q41 -3 34 9T38 36L202 271Z" />
<glyph unicode="y" glyph-name="y" horiz-adv-x="500" d="M205 -143Q197 -162 182 -162H181Q167 -162 161 -153T161 -128L232 36L33 486Q26 501 34 511T55 521H56Q71 521 80 500L256 96H257L426 502Q434 521 449 521H450Q464 521 470 511T470 487L205 -143Z" />
<glyph unicode="z" glyph-name="z" horiz-adv-x="456" d="M416 521Q435 521 435 502V498Q435 481 423 466L90 39H414Q424 39 428 34T432 21V19Q432 0 414 0H52Q33 0 33 19V24Q33 36 37 42T48 58L378 482H70Q51 482 51 501V503Q51 511 55 516T70 521H416Z" />
<glyph unicode="{" glyph-name="braceleft" horiz-adv-x="304" d="M39 334Q29 334 25 339T20 353V355Q20 363 24 368T39 374H50Q82 374 97 389T113 433V627Q113 741 229 741H266Q276 741 280 736T285 722V720Q285 712 281 707T266 701H234Q197 701 181 683T164
627V435Q164 398 147 380T103 355Q130 347 147 328T164 273V66Q164 30 180 11T234 -9H266Q276 -9 280 -14T285 -28V-30Q285 -38 281 -43T266 -49H229Q113 -49 113 67V275Q113 303 98 318T50 334H39Z" />
<glyph unicode="|" glyph-name="bar" horiz-adv-x="203" d="M80 721Q80 732 86 736T101 741H103Q111 741 117 737T123 721V-32Q123 -43 117 -47T103 -52H101Q92 -52 86 -48T80 -32V721Z" />
<glyph unicode="}" glyph-name="braceright" horiz-adv-x="304" d="M254 334Q222 334 207 319T191 275V67Q191 -49 75 -49H38Q28 -49 24 -44T19 -30V-28Q19 -20 23 -15T38 -9H70Q107 -9 123 10T140 66V273Q140 309 157 328T201 355Q174 362 157 380T140 435V627Q140
664 124 682T70 701H38Q28 701 24 706T19 720V722Q19 730 23 735T38 741H75Q191 741 191 627V433Q191 405 206 390T254 374H265Q275 374 279 369T284 355V353Q284 345 280 340T265 334H254Z" />
<glyph unicode="~" glyph-name="asciitilde" horiz-adv-x="326" d="M101 329Q119 329 136 323T169 309T199 295T226 289Q241 289 248 296T260 313T268 329T282 337H283Q295 337 299 329T301 306Q294 276 275 260T227 243Q210 243 194 249T161 262T131 276T104
283Q89 283 82 276T70 259T61 243T47 235H46Q23 235 28 266Q33 292 52 310T101 329Z" />
<glyph unicode="&#xa0;" glyph-name="space" horiz-adv-x="196" />
<glyph unicode="&#xa1;" glyph-name="exclamdown" horiz-adv-x="225" d="M91 462Q92 473 97 478T111 483H113Q121 483 126 478T133 462Q134 362 136 267Q136 226 136 183T137 98T138 18T139 -52Q139 -65 132 -72T113 -79H111Q100 -79 93 -72T85 -52Q85 -21 85
17T85 98T86 183T88 267Q89 362 91 462ZM74 590Q74 607 85 617T113 628Q130 628 140 618T151 590Q151 574 141 563T113 551Q96 551 85 562T74 590Z" />
<glyph unicode="&#xa2;" glyph-name="cent" horiz-adv-x="480" d="M438 46Q418 29 382 14T297 -3V-86Q297 -97 291 -101T277 -106H275Q267 -106 261 -102T255 -86V-3Q149 4 91 74T32 262Q32 320 48 367T94 449T164 502T255 526V569Q255 580 261 584T275 589H277Q285
589 291 585T297 569V526Q343 524 374 513T426 488Q443 475 443 461V460Q443 451 437 445T422 438Q411 438 403 444T382 459T350 476T297 486V36Q334 38 355 47T390 67T412 86T431 95Q441 95 446 89T452 74V73Q452 58 438 46ZM83 262Q83 161 128 103T255 37V486Q177
478 130 420T83 262Z" />
<glyph unicode="&#xa3;" glyph-name="sterling" horiz-adv-x="504" d="M47 0Q36 0 31 7T26 23V24Q26 39 39 50T69 78T99 119T113 189Q113 224 109 258T98 324H45Q35 324 31 329T26 343V345Q26 353 30 358T45 364H90Q82 405 75 442T68 516Q68 600 122 652T279 704Q330
704 372 691T443 653Q459 640 459 625V624Q459 614 453 608T437 602Q425 602 415 611T390 631T349 651T280 660Q197 660 159 622T121 516Q121 480 127 443T142 364H327Q337 364 341 359T346 345V343Q346 335 342 330T327 324H149Q155 292 159 259T163 189Q163 136
143 103T92 45H452Q463 45 468 39T473 24V22Q473 13 468 7T452 0H47Z" />
<glyph unicode="&#xa5;" glyph-name="yen" horiz-adv-x="513" d="M257 -4Q246 -4 239 2T231 22V196H75Q57 196 57 215V216Q57 235 75 235H231V303H75Q57 303 57 322V323Q57 342 75 342H218L31 661Q20 679 27 691T51 704H52Q66 704 76 685L260 370H261L441 687Q446
695 450 699T463 704H464Q480 704 485 692T483 666L296 342H441Q459 342 459 323V322Q459 303 441 303H285V235H441Q459 235 459 216V215Q459 196 441 196H285V22Q285 9 278 3T259 -4H257Z" />
<glyph unicode="&#xa6;" glyph-name="brokenbar" horiz-adv-x="135" d="M90 402Q90 391 84 386T69 381H66Q58 381 52 386T45 402V723Q45 734 51 739T66 744H69Q77 744 83 739T90 723V402ZM90 -28Q90 -39 84 -44T69 -49H66Q58 -49 52 -44T45 -28V293Q45 304 51
309T66 314H69Q77 314 83 309T90 293V-28Z" />
<glyph unicode="&#xa7;" glyph-name="section" horiz-adv-x="505" d="M209 135Q123 159 76 194T29 294Q29 351 64 384T165 431Q125 451 106 481T87 560Q87 624 134 664T264 704Q312 704 348 695T402 673Q420 661 420 645V644Q420 636 414 630T400 624Q389 624
381 630T359 644T324 658T265 665Q202 665 168 636T134 562Q134 514 167 488T277 442Q318 432 354 419T418 386T460 341T476 279Q476 223 443 187T347 134Q382 117 401 91T420 19Q420 -53 374 -92T234 -131Q181 -131 143 -120T81 -93Q62 -80 62 -64V-63Q62 -54
67 -48T82 -42Q92 -42 101 -50T126 -67T166 -84T233 -92Q301 -92 336 -66T371 15Q371 41 362 58T334 88T283 112T209 135ZM427 273Q427 324 385 352T265 398L229 407Q149 401 114 374T78 302Q78 255 111 227T223 177L290 157Q354 164 390 193T427 273Z" />
<glyph unicode="&#xa8;" glyph-name="dieresis" horiz-adv-x="412" d="M168 634Q168 620 158 611T134 601Q120 601 110 610T100 634Q100 648 110 658T134 668Q148 668 158 658T168 634ZM311 634Q311 620 301 611T277 601Q263 601 254 610T244 634Q244 648 253
658T277 668Q291 668 301 658T311 634Z" />
<glyph unicode="&#xa9;" glyph-name="copyright" horiz-adv-x="792" d="M751 350Q751 264 722 198T645 86T532 18T396 -6Q325 -6 261 17T147 86T70 197T41 350Q41 436 69 502T147 614T260 682T396 706Q467 706 531 683T644 614T722 503T751 350ZM84 350Q84 273
108 214T175 114T274 52T396 31Q460 31 517 52T617 113T684 213T709 350Q709 427 685 486T617 587T517 649T396 670Q331 670 275 649T176 587T109 487T84 350ZM519 190Q501 176 473 166T404 156Q314 156 265 208T216 351Q216 396 230 432T269 493T329 531T406 545Q445
545 472 538T515 519Q532 507 532 493V492Q532 481 526 476T512 470Q503 470 496 475T479 487T452 499T406 505Q345 505 307 466T268 351Q268 274 304 236T406 197Q436 197 453 203T480 218T498 232T515 239Q523 239 529 234T535 219V218Q535 209 531 202T519 190Z"
/>
<glyph unicode="&#xaa;" glyph-name="ordfeminine" horiz-adv-x="420" d="M342 254Q330 254 324 261T318 288V318Q290 287 255 271T169 254Q107 254 67 285T26 381Q26 448 75 480T203 513Q235 513 263 510T318 499V572Q318 627 291 646T210 665Q172 665 150 659T114
646T92 633T73 627Q54 627 54 647V648Q54 661 71 671Q95 685 132 694T217 704Q249 704 276 698T323 677T354 638T365 576V278Q365 254 343 254H342ZM175 290Q228 290 260 310T318 361V466Q292 471 266 474T210 478Q148 478 111 457T73 384Q73 332 101 311T175 290Z"
/>
<glyph unicode="&#xab;" glyph-name="guillemotleft" horiz-adv-x="426" d="M37 235Q26 249 26 259V261Q26 271 37 285L180 461Q191 477 203 477H204Q218 477 224 465T220 439L80 261V259L220 81Q231 67 225 55T204 43H203Q191 43 180 59L37 235ZM204 235Q193
249 193 259V261Q193 271 204 285L347 461Q358 477 370 477H371Q385 477 391 465T387 439L247 261V259L387 81Q398 67 392 55T371 43H370Q358 43 347 59L204 235Z" />
<glyph unicode="&#xae;" glyph-name="registered" horiz-adv-x="426" d="M31 529Q31 569 44 602T82 658T140 695T213 708Q252 708 285 695T343 659T381 602T395 529Q395 489 382 456T344 400T286 363T213 350Q173 350 140 363T82 399T45 456T31 529ZM63 529Q63
462 104 421T213 379Q280 379 321 420T363 529Q363 596 322 637T213 679Q146 679 105 638T63 529ZM164 433Q145 433 145 452V603Q145 617 152 623T171 629H220Q291 629 291 571Q291 532 255 518L290 462Q297 451 291 442T275 433H274Q267 433 263 437T255 447L217
512H184V452Q184 441 179 437T166 433H164ZM217 539Q237 539 245 547T253 571Q253 585 245 593T217 601H184V539H217Z" />
<glyph unicode="&#xaf;" glyph-name="macron" horiz-adv-x="412" d="M303 648Q312 648 316 643T320 631V629Q320 621 316 616T303 611H110Q100 611 96 616T92 629V631Q92 638 96 643T110 648H303Z" />
<glyph unicode="&#xb0;" glyph-name="degree" horiz-adv-x="316" d="M284 579Q284 550 274 527T247 488T207 462T158 453Q132 453 110 462T70 487T42 527T32 579Q32 608 42 631T69 671T109 697T158 706Q184 706 207 697T247 672T274 632T284 579ZM73 579Q73 539
98 515T158 490Q194 490 218 514T243 579Q243 621 219 645T158 669Q123 669 98 645T73 579Z" />
<glyph unicode="&#xb4;" glyph-name="acute" horiz-adv-x="412" d="M220 579Q211 569 203 569H202Q191 569 186 578T189 598L249 686Q257 697 263 702T279 708H280Q295 708 301 694T294 664L220 579Z" />
<glyph unicode="&#xb6;" glyph-name="paragraph" horiz-adv-x="546" d="M305 -95Q296 -95 290 -90T283 -73V338H267Q217 338 175 346T101 375T51 431T33 519Q33 574 51 609T102 664T178 692T273 700H436Q447 700 454 694T462 674V-73Q462 -84 456 -89T440 -95H438Q429
-95 423 -90T416 -73V656H329V-73Q329 -84 323 -89T307 -95H305Z" />
<glyph unicode="&#xb7;" glyph-name="periodcentered" horiz-adv-x="142" d="M110 312Q110 295 99 285T71 274Q54 274 44 284T33 312Q33 328 43 339T71 351Q87 351 98 340T110 312Z" />
<glyph unicode="&#xb8;" glyph-name="cedilla" horiz-adv-x="412" d="M167 0H204V-40Q242 -42 262 -59T283 -108Q283 -140 259 -157T200 -174Q164 -174 141 -160Q129 -153 129 -141V-140Q129 -133 133 -128T144 -123Q150 -123 154 -125T163 -130T177 -135T197
-138Q216 -138 228 -131T240 -107Q240 -92 229 -83T190 -73H182Q167 -73 167 -59V0Z" />
<glyph unicode="&#xba;" glyph-name="ordmasculine" horiz-adv-x="484" d="M452 479Q452 425 436 383T392 313T326 269T242 254Q197 254 159 269T93 312T48 383T32 479Q32 532 48 574T92 645T159 689T242 704Q287 704 325 689T392 645T436 574T452 479ZM81 479Q81
386 125 340T242 293Q315 293 359 339T403 479Q403 570 359 618T242 666Q169 666 125 618T81 479Z" />
<glyph unicode="&#xbb;" glyph-name="guillemotright" horiz-adv-x="426" d="M246 59Q235 43 223 43H222Q208 43 202 55T206 81L346 259V261L206 439Q195 453 201 465T222 477H223Q235 477 246 461L389 285Q400 271 400 261V259Q400 249 389 235L246 59ZM79 59Q68
43 56 43H55Q41 43 35 55T39 81L179 259V261L39 439Q28 453 34 465T55 477H56Q68 477 79 461L222 285Q233 271 233 261V259Q233 249 222 235L79 59Z" />
<glyph unicode="&#xbc;" glyph-name="onequarter" horiz-adv-x="653" d="M386 128V126H537V313H536L386 128ZM560 373Q568 373 574 368T581 352V126H622Q638 126 638 110V108Q638 92 622 92H581V17Q581 7 575 2T560 -4H558Q550 -4 544 1T537 17V92H363Q344 92
344 112V113Q344 124 347 130T361 149L525 357Q531 365 537 369T557 373H560ZM525 716Q536 733 547 733H548Q560 733 565 723T562 698L92 -21Q81 -38 70 -38H69Q57 -38 52 -28T55 -3L525 716ZM152 346Q152 334 145 329T129 323H128Q119 323 112 328T105 346V650L37
612Q28 607 22 607Q14 607 10 612T6 625V626Q6 631 9 635T21 645L105 692Q119 700 129 700H130Q152 700 152 678V346Z" />
<glyph unicode="&#xbd;" glyph-name="onehalf" horiz-adv-x="686" d="M525 716Q536 733 547 733H548Q560 733 565 723T562 698L92 -21Q81 -38 70 -38H69Q57 -38 52 -28T55 -3L525 716ZM652 38Q662 38 666 33T670 20V18Q670 10 666 5T652 0H436Q418 0 418 19V20Q418
32 423 39T444 60L534 142Q556 163 572 179T598 211T613 240T618 270Q618 302 599 321T542 340Q518 340 504 334T481 321T464 308T448 302Q440 302 435 307T430 320V321Q430 326 432 331T443 343Q460 357 487 366T547 376Q601 376 633 349T666 274Q666 233 640
198T564 119L476 38H652ZM152 346Q152 334 145 329T129 323H128Q119 323 112 328T105 346V650L37 612Q28 607 22 607Q14 607 10 612T6 625V626Q6 631 9 635T21 645L105 692Q119 700 129 700H130Q152 700 152 678V346Z" />
<glyph unicode="&#xbe;" glyph-name="threequarters" horiz-adv-x="688" d="M257 433Q257 380 221 352T123 324Q92 324 65 332T21 353Q16 357 12 362T8 374V375Q8 392 25 392Q32 392 38 387T54 376T79 365T121 360Q165 360 188 380T212 436Q212 455 205 468T185
489T156 500T124 504H99Q83 504 83 520V522Q83 528 87 532T99 537H121Q158 537 181 554T204 604Q204 667 126 667Q104 667 90 663T67 652T51 642T37 637Q29 637 25 642T20 654V655Q20 666 32 675Q50 687 75 695T131 703Q184 703 216 680T248 608Q248 573 230 554T183
524V522Q217 514 237 493T257 433ZM577 716Q588 733 599 733H600Q612 733 617 723T614 698L144 -21Q133 -38 122 -38H121Q109 -38 104 -28T107 -3L577 716ZM420 128V126H571V313H570L420 128ZM594 373Q602 373 608 368T615 352V126H656Q672 126 672 110V108Q672
92 656 92H615V17Q615 7 609 2T594 -4H592Q584 -4 578 1T571 17V92H397Q378 92 378 112V113Q378 124 381 130T395 149L559 357Q565 365 571 369T591 373H594Z" />
<glyph unicode="&#xbf;" glyph-name="questiondown" horiz-adv-x="428" d="M221 590Q221 607 232 617T260 628Q277 628 287 618T298 590Q298 574 288 563T260 551Q244 551 233 562T221 590ZM216 -38Q259 -38 284 -29T326 -9T352 11T374 20Q383 20 388 14T394 -3V-4Q394
-15 386 -23T367 -40Q341 -57 305 -68T215 -80Q130 -80 82 -41T33 79Q33 114 44 141T73 192T115 238T164 285Q187 308 205 328T234 375Q241 392 242 414T244 462Q244 473 250 478T264 483H266Q274 483 280 478T287 462Q290 426 286 400T271 350T242 305T198 256Q180
238 161 220T125 180T98 133T87 77Q87 22 120 -8T216 -38Z" />
<glyph unicode="&#xc0;" glyph-name="Agrave" horiz-adv-x="610" d="M576 36Q584 16 575 7T554 -3H553Q545 -3 538 2T526 22L455 219H152L83 25Q78 9 71 3T55 -3H54Q40 -3 33 6T34 36L265 672Q271 688 280 694T304 700H309Q323 700 332 694T348 672L576 36ZM168
263H440L305 641H303L168 263ZM307 728Q301 728 297 732T287 741L233 806Q221 821 227 834T249 848H250Q263 848 273 832L317 762Q327 747 323 738T308 728H307Z" />
<glyph unicode="&#xc1;" glyph-name="Aacute" horiz-adv-x="610" d="M576 36Q584 16 575 7T554 -3H553Q545 -3 538 2T526 22L455 219H152L83 25Q78 9 71 3T55 -3H54Q40 -3 33 6T34 36L265 672Q271 688 280 694T304 700H309Q323 700 332 694T348 672L576 36ZM168
263H440L305 641H303L168 263ZM305 728Q294 728 290 737T296 762L340 832Q350 848 363 848H364Q380 848 386 835T380 806L326 741Q321 736 317 732T306 728H305Z" />
<glyph unicode="&#xc2;" glyph-name="Acircumflex" horiz-adv-x="610" d="M576 36Q584 16 575 7T554 -3H553Q545 -3 538 2T526 22L455 219H152L83 25Q78 9 71 3T55 -3H54Q40 -3 33 6T34 36L265 672Q271 688 280 694T304 700H309Q323 700 332 694T348 672L576 36ZM168
263H440L305 641H303L168 263ZM400 760Q411 749 407 739T392 729H391Q384 729 373 738L304 801L236 738Q225 729 218 729H217Q207 729 203 739T209 760L271 827Q277 834 284 838T302 843H306Q317 843 324 839T337 827L400 760Z" />
<glyph unicode="&#xc3;" glyph-name="Atilde" horiz-adv-x="610" d="M576 36Q584 16 575 7T554 -3H553Q545 -3 538 2T526 22L455 219H152L83 25Q78 9 71 3T55 -3H54Q40 -3 33 6T34 36L265 672Q271 688 280 694T304 700H309Q323 700 332 694T348 672L576 36ZM168
263H440L305 641H303L168 263Z" />
<glyph unicode="&#xc4;" glyph-name="Adieresis" horiz-adv-x="610" d="M576 36Q584 16 575 7T554 -3H553Q545 -3 538 2T526 22L455 219H152L83 25Q78 9 71 3T55 -3H54Q40 -3 33 6T34 36L265 672Q271 688 280 694T304 700H309Q323 700 332 694T348 672L576 36ZM168
263H440L305 641H303L168 263ZM268 773Q268 759 258 749T234 739Q220 739 210 749T200 773Q200 787 210 797T234 807Q248 807 258 797T268 773ZM411 773Q411 759 401 749T377 739Q363 739 354 749T344 773Q344 787 353 797T377 807Q391 807 401 797T411 773Z" />
<glyph unicode="&#xc5;" glyph-name="Aring" horiz-adv-x="610" d="M576 36Q584 16 575 7T554 -3H553Q545 -3 538 2T526 22L455 219H152L83 25Q78 9 71 3T55 -3H54Q40 -3 33 6T34 36L265 672Q271 688 280 694T304 700H309Q323 700 332 694T348 672L576 36ZM168
263H440L305 641H303L168 263ZM393 820Q393 780 367 758T306 735Q271 735 245 757T218 820Q218 859 244 882T306 906Q340 906 366 883T393 820ZM255 820Q255 796 269 782T306 768Q327 768 342 782T357 820Q357 843 342 858T306 873Q284 873 270 858T255 820Z" />
<glyph unicode="&#xc6;" glyph-name="AE" horiz-adv-x="920" d="M481 0Q470 0 463 6T455 26V220H176L68 14Q58 -4 44 -4H43Q28 -4 22 8T25 38L364 677Q375 700 402 700H855Q863 700 869 695T876 679V677Q876 666 870 661T855 655H509V383H766Q774 383 780 378T787
362V360Q787 349 781 344T766 339H509V44H869Q877 44 883 39T890 23V21Q890 10 884 5T869 0H481ZM404 655L199 264H455V655H404Z" />
<glyph unicode="&#xc7;" glyph-name="Ccedilla" horiz-adv-x="614" d="M342 -4V-40Q380 -42 400 -59T421 -108Q421 -140 397 -157T338 -174Q302 -174 279 -160Q267 -153 267 -141V-140Q267 -133 271 -128T282 -123Q288 -123 292 -125T301 -130T315 -135T335 -138Q354
-138 366 -131T378 -107Q378 -92 367 -83T328 -73H320Q305 -73 305 -59V-1Q248 6 201 33T120 104T68 211T49 352Q49 438 73 504T140 614T238 681T357 704Q418 704 463 692T543 654Q558 643 564 634T570 617V616Q570 605 564 599T547 593Q534 593 522 603T491 627T441
650T360 661Q306 661 259 642T178 584T124 488T104 354Q104 277 121 218T171 119T249 59T352 39Q409 39 445 52T502 80T536 108T559 121Q569 121 575 115T582 99V98Q582 81 555 60Q520 33 471 15T351 -4H342Z" />
<glyph unicode="&#xc8;" glyph-name="Egrave" horiz-adv-x="549" d="M111 0Q100 0 93 6T85 26V674Q85 688 92 694T111 700H484Q492 700 498 695T505 679V677Q505 666 499 661T484 655H138V383H395Q403 383 409 378T416 362V360Q416 349 410 344T395 339H138V44H498Q506
44 512 39T519 23V21Q519 10 513 5T498 0H111ZM303 728Q297 728 293 732T283 741L229 806Q217 821 223 834T245 848H246Q259 848 269 832L313 762Q323 747 319 738T304 728H303Z" />
<glyph unicode="&#xc9;" glyph-name="Eacute" horiz-adv-x="549" d="M111 0Q100 0 93 6T85 26V674Q85 688 92 694T111 700H484Q492 700 498 695T505 679V677Q505 666 499 661T484 655H138V383H395Q403 383 409 378T416 362V360Q416 349 410 344T395 339H138V44H498Q506
44 512 39T519 23V21Q519 10 513 5T498 0H111ZM300 728Q289 728 285 737T291 762L335 832Q345 848 358 848H359Q375 848 381 835T375 806L321 741Q316 736 312 732T301 728H300Z" />
<glyph unicode="&#xca;" glyph-name="Ecircumflex" horiz-adv-x="549" d="M111 0Q100 0 93 6T85 26V674Q85 688 92 694T111 700H484Q492 700 498 695T505 679V677Q505 666 499 661T484 655H138V383H395Q403 383 409 378T416 362V360Q416 349 410 344T395 339H138V44H498Q506
44 512 39T519 23V21Q519 10 513 5T498 0H111ZM395 760Q406 749 402 739T387 729H386Q379 729 368 738L299 801L231 738Q220 729 213 729H212Q202 729 198 739T204 760L266 827Q272 834 279 838T297 843H301Q312 843 319 839T332 827L395 760Z" />
<glyph unicode="&#xcb;" glyph-name="Edieresis" horiz-adv-x="549" d="M111 0Q100 0 93 6T85 26V674Q85 688 92 694T111 700H484Q492 700 498 695T505 679V677Q505 666 499 661T484 655H138V383H395Q403 383 409 378T416 362V360Q416 349 410 344T395 339H138V44H498Q506
44 512 39T519 23V21Q519 10 513 5T498 0H111ZM263 773Q263 759 253 749T229 739Q215 739 205 749T195 773Q195 787 205 797T229 807Q243 807 253 797T263 773ZM406 773Q406 759 396 749T372 739Q358 739 349 749T339 773Q339 787 348 797T372 807Q386 807 396
797T406 773Z" />
<glyph unicode="&#xcc;" glyph-name="Igrave" horiz-adv-x="228" d="M87 677Q87 691 94 697T113 703H115Q126 703 133 697T141 677V23Q141 9 134 3T115 -3H113Q102 -3 95 3T87 23V677ZM373 728Q367 728 363 732T353 741L299 806Q287 821 293 834T315 848H316Q329
848 339 832L383 762Q393 747 389 738T374 728H373Z" />
<glyph unicode="&#xcd;" glyph-name="Iacute" horiz-adv-x="228" d="M87 677Q87 691 94 697T113 703H115Q126 703 133 697T141 677V23Q141 9 134 3T115 -3H113Q102 -3 95 3T87 23V677ZM371 728Q360 728 356 737T362 762L406 832Q416 848 429 848H430Q446 848 452
835T446 806L392 741Q387 736 383 732T372 728H371Z" />
<glyph unicode="&#xce;" glyph-name="Icircumflex" horiz-adv-x="228" d="M87 677Q87 691 94 697T113 703H115Q126 703 133 697T141 677V23Q141 9 134 3T115 -3H113Q102 -3 95 3T87 23V677ZM466 760Q477 749 473 739T458 729H457Q450 729 439 738L370 801L302
738Q291 729 284 729H283Q273 729 269 739T275 760L337 827Q343 834 350 838T368 843H372Q383 843 390 839T403 827L466 760Z" />
<glyph unicode="&#xcf;" glyph-name="Idieresis" horiz-adv-x="228" d="M87 677Q87 691 94 697T113 703H115Q126 703 133 697T141 677V23Q141 9 134 3T115 -3H113Q102 -3 95 3T87 23V677ZM334 773Q334 759 324 749T300 739Q286 739 276 749T266 773Q266 787 276
797T300 807Q314 807 324 797T334 773ZM477 773Q477 759 467 749T443 739Q429 739 420 749T410 773Q410 787 419 797T443 807Q457 807 467 797T477 773Z" />
<glyph unicode="&#xd0;" glyph-name="Eth" horiz-adv-x="665" d="M272 700Q359 700 424 681T534 619T601 511T624 351Q624 165 535 83T271 0H111Q100 0 93 6T85 26V329H30Q19 329 14 335T9 350V352Q9 360 14 366T30 373H85V674Q85 688 92 694T111 700H272ZM138
373H332Q343 373 348 367T353 352V350Q353 342 348 336T332 329H138V44H271Q347 44 403 60T496 114T551 209T569 350Q569 433 551 491T496 586T403 639T271 656H138V373Z" />
<glyph unicode="&#xd1;" glyph-name="Ntilde" horiz-adv-x="676" d="M137 629H135V22Q135 9 128 3T110 -3H109Q99 -3 92 3T85 22V673Q85 687 92 693T111 700H127Q142 700 150 694T167 675L540 96H541V678Q541 691 548 697T566 703H567Q578 703 585 697T592 678V25Q592
-2 566 -2H563Q549 -2 542 4T526 23L137 629Z" />
<glyph unicode="&#xd2;" glyph-name="Ograve" horiz-adv-x="710" d="M669 350Q669 264 644 198T576 87T477 19T356 -4Q291 -4 234 19T134 87T66 198T41 350Q41 436 66 502T134 613T234 681T356 704Q420 704 476 681T576 613T644 502T669 350ZM96 349Q96 272 116
214T171 117T253 58T356 38Q410 38 457 58T539 117T594 214T614 349Q614 426 594 484T540 582T458 642T356 662Q301 662 254 642T171 583T116 485T96 349ZM356 728Q350 728 346 732T336 741L282 806Q270 821 276 834T298 848H299Q312 848 322 832L366 762Q376 747
372 738T357 728H356Z" />
<glyph unicode="&#xd3;" glyph-name="Oacute" horiz-adv-x="710" d="M669 350Q669 264 644 198T576 87T477 19T356 -4Q291 -4 234 19T134 87T66 198T41 350Q41 436 66 502T134 613T234 681T356 704Q420 704 476 681T576 613T644 502T669 350ZM96 349Q96 272 116
214T171 117T253 58T356 38Q410 38 457 58T539 117T594 214T614 349Q614 426 594 484T540 582T458 642T356 662Q301 662 254 642T171 583T116 485T96 349ZM354 728Q343 728 339 737T345 762L389 832Q399 848 412 848H413Q429 848 435 835T429 806L375 741Q370 736
366 732T355 728H354Z" />
<glyph unicode="&#xd4;" glyph-name="Ocircumflex" horiz-adv-x="710" d="M669 350Q669 264 644 198T576 87T477 19T356 -4Q291 -4 234 19T134 87T66 198T41 350Q41 436 66 502T134 613T234 681T356 704Q420 704 476 681T576 613T644 502T669 350ZM96 349Q96 272
116 214T171 117T253 58T356 38Q410 38 457 58T539 117T594 214T614 349Q614 426 594 484T540 582T458 642T356 662Q301 662 254 642T171 583T116 485T96 349ZM449 760Q460 749 456 739T441 729H440Q433 729 422 738L353 801L285 738Q274 729 267 729H266Q256 729
252 739T258 760L320 827Q326 834 333 838T351 843H355Q366 843 373 839T386 827L449 760Z" />
<glyph unicode="&#xd5;" glyph-name="Otilde" horiz-adv-x="710" d="M669 350Q669 264 644 198T576 87T477 19T356 -4Q291 -4 234 19T134 87T66 198T41 350Q41 436 66 502T134 613T234 681T356 704Q420 704 476 681T576 613T644 502T669 350ZM96 349Q96 272 116
214T171 117T253 58T356 38Q410 38 457 58T539 117T594 214T614 349Q614 426 594 484T540 582T458 642T356 662Q301 662 254 642T171 583T116 485T96 349Z" />
<glyph unicode="&#xd6;" glyph-name="Odieresis" horiz-adv-x="710" d="M669 350Q669 264 644 198T576 87T477 19T356 -4Q291 -4 234 19T134 87T66 198T41 350Q41 436 66 502T134 613T234 681T356 704Q420 704 476 681T576 613T644 502T669 350ZM96 349Q96 272
116 214T171 117T253 58T356 38Q410 38 457 58T539 117T594 214T614 349Q614 426 594 484T540 582T458 642T356 662Q301 662 254 642T171 583T116 485T96 349ZM317 773Q317 759 307 749T283 739Q269 739 259 749T249 773Q249 787 259 797T283 807Q297 807 307 797T317
773ZM460 773Q460 759 450 749T426 739Q412 739 403 749T393 773Q393 787 402 797T426 807Q440 807 450 797T460 773Z" />
<glyph unicode="&#xd7;" glyph-name="multiply" horiz-adv-x="467" d="M203 338L65 478Q53 490 58 504T78 518H79Q88 518 97 509L233 372L369 509Q378 518 387 518H388Q404 518 409 504T402 478L263 338L402 199Q414 187 409 173T388 159H387Q378 159 369 168L233
305L97 168Q88 159 79 159H78Q63 159 58 173T65 199L203 338Z" />
<glyph unicode="&#xd8;" glyph-name="Oslash" horiz-adv-x="710" d="M669 350Q669 264 644 198T576 87T477 19T356 -4Q244 -4 162 61L104 -15Q92 -31 82 -31H81Q69 -31 63 -21T68 5L132 89Q90 134 66 199T41 350Q41 436 66 502T134 613T234 681T356 704Q411 704
460 687T551 636L606 707Q618 723 628 723H629Q641 723 647 713T642 687L581 607Q622 562 645 498T669 350ZM96 349Q96 277 113 222T162 127L523 599Q490 631 447 646T356 662Q301 662 254 642T171 583T116 485T96 349ZM614 349Q614 419 597 474T551 568L190 97Q258
38 356 38Q410 38 457 58T539 117T594 214T614 349Z" />
<glyph unicode="&#xd9;" glyph-name="Ugrave" horiz-adv-x="672" d="M593 237Q593 171 574 125T520 51T440 9T339 -4Q285 -4 238 9T156 50T101 125T80 237V677Q80 691 87 697T106 703H107Q118 703 125 697T133 677V235Q133 179 149 142T194 82T261 50T342 40Q383
40 419 49T483 80T525 140T541 235V678Q541 691 548 697T566 703H568Q579 703 586 697T593 678V237ZM338 728Q332 728 328 732T318 741L264 806Q252 821 258 834T280 848H281Q294 848 304 832L348 762Q358 747 354 738T339 728H338Z" />
<glyph unicode="&#xda;" glyph-name="Uacute" horiz-adv-x="672" d="M593 237Q593 171 574 125T520 51T440 9T339 -4Q285 -4 238 9T156 50T101 125T80 237V677Q80 691 87 697T106 703H107Q118 703 125 697T133 677V235Q133 179 149 142T194 82T261 50T342 40Q383
40 419 49T483 80T525 140T541 235V678Q541 691 548 697T566 703H568Q579 703 586 697T593 678V237ZM337 728Q326 728 322 737T328 762L372 832Q382 848 395 848H396Q412 848 418 835T412 806L358 741Q353 736 349 732T338 728H337Z" />
<glyph unicode="&#xdb;" glyph-name="Ucircumflex" horiz-adv-x="672" d="M593 237Q593 171 574 125T520 51T440 9T339 -4Q285 -4 238 9T156 50T101 125T80 237V677Q80 691 87 697T106 703H107Q118 703 125 697T133 677V235Q133 179 149 142T194 82T261 50T342
40Q383 40 419 49T483 80T525 140T541 235V678Q541 691 548 697T566 703H568Q579 703 586 697T593 678V237ZM431 760Q442 749 438 739T423 729H422Q415 729 404 738L335 801L267 738Q256 729 249 729H248Q238 729 234 739T240 760L302 827Q308 834 315 838T333
843H337Q348 843 355 839T368 827L431 760Z" />
<glyph unicode="&#xdc;" glyph-name="Udieresis" horiz-adv-x="672" d="M593 237Q593 171 574 125T520 51T440 9T339 -4Q285 -4 238 9T156 50T101 125T80 237V677Q80 691 87 697T106 703H107Q118 703 125 697T133 677V235Q133 179 149 142T194 82T261 50T342 40Q383
40 419 49T483 80T525 140T541 235V678Q541 691 548 697T566 703H568Q579 703 586 697T593 678V237ZM299 773Q299 759 289 749T265 739Q251 739 241 749T231 773Q231 787 241 797T265 807Q279 807 289 797T299 773ZM442 773Q442 759 432 749T408 739Q394 739 385
749T375 773Q375 787 384 797T408 807Q422 807 432 797T442 773Z" />
<glyph unicode="&#xdd;" glyph-name="Yacute" horiz-adv-x="548" d="M302 295V23Q302 9 295 3T276 -3H274Q263 -3 256 3T248 23V293L33 663Q24 679 31 691T53 703H54Q69 703 79 684L275 343H277L474 686Q479 694 484 698T497 703H498Q512 703 519 693T518 667L302
295ZM276 728Q265 728 261 737T267 762L311 832Q321 848 334 848H335Q351 848 357 835T351 806L297 741Q292 736 288 732T277 728H276Z" />
<glyph unicode="&#xde;" glyph-name="Thorn" horiz-adv-x="550" d="M111 -3Q100 -3 93 3T85 23V678Q85 691 92 697T111 703H112Q123 703 130 697T138 678V557H267Q323 557 369 547T447 514T497 454T515 362Q515 307 498 269T449 206T370 172T266 161H138V23Q138
9 131 3T112 -3H111ZM138 512V204H266Q313 204 349 212T410 238T448 286T461 361Q461 405 448 434T409 480T347 505T266 512H138Z" />
<glyph unicode="&#xdf;" glyph-name="germandbls" horiz-adv-x="564" d="M95 -4Q85 -4 78 2T71 20V495Q71 547 87 586T133 652T204 692T295 705Q332 705 364 699T420 677T457 639T471 583Q471 560 462 541T437 503T401 469T360 437Q326 413 311 396T295 358Q295
336 316 321T391 287Q421 276 447 264T491 236T521 196T532 140Q532 70 485 33T358 -4Q321 -4 289 4T238 26Q223 36 223 50V51Q223 59 228 65T243 71Q253 71 260 66T279 53T308 41T358 35Q418 35 451 60T484 136Q484 159 476 175T453 204T417 226T367 246Q311 267
280 289T249 352Q249 387 269 411T325 463Q344 478 361 491T392 519T413 548T421 582Q421 626 385 646T295 666Q213 666 167 621T121 493V20Q121 8 114 2T97 -4H95Z" />
<glyph unicode="&#xe0;" glyph-name="agrave" horiz-adv-x="491" d="M374 71Q341 36 301 16T196 -5Q160 -5 129 5T76 34T41 81T28 146Q28 185 43 214T86 262T152 290T237 299Q311 299 374 283V377Q374 438 339 462T246 487Q200 487 174 480T131 464T105 448T83
440Q75 440 69 445T62 461V462Q62 469 68 478T96 497Q125 511 162 519T248 527Q288 527 320 519T376 494T411 449T424 380V21Q424 -3 402 -3H401Q387 -3 381 7T374 46V71ZM203 34Q266 34 304 58T374 119V247Q344 254 311 258T240 263Q205 263 176 257T125 237T91
202T79 150Q79 88 114 61T203 34ZM157 664Q143 680 149 694T171 708H172Q181 708 187 703T202 686L262 598Q270 587 265 578T249 569H248Q240 569 231 579L157 664Z" />
<glyph unicode="&#xe1;" glyph-name="aacute" horiz-adv-x="491" d="M374 71Q341 36 301 16T196 -5Q160 -5 129 5T76 34T41 81T28 146Q28 185 43 214T86 262T152 290T237 299Q311 299 374 283V377Q374 438 339 462T246 487Q200 487 174 480T131 464T105 448T83
440Q75 440 69 445T62 461V462Q62 469 68 478T96 497Q125 511 162 519T248 527Q288 527 320 519T376 494T411 449T424 380V21Q424 -3 402 -3H401Q387 -3 381 7T374 46V71ZM203 34Q266 34 304 58T374 119V247Q344 254 311 258T240 263Q205 263 176 257T125 237T91
202T79 150Q79 88 114 61T203 34ZM270 580Q261 570 253 570H252Q241 570 236 579T239 599L299 687Q307 698 313 703T329 709H330Q345 709 351 695T344 665L270 580Z" />
<glyph unicode="&#xe2;" glyph-name="acircumflex" horiz-adv-x="491" d="M374 71Q341 36 301 16T196 -5Q160 -5 129 5T76 34T41 81T28 146Q28 185 43 214T86 262T152 290T237 299Q311 299 374 283V377Q374 438 339 462T246 487Q200 487 174 480T131 464T105 448T83
440Q75 440 69 445T62 461V462Q62 469 68 478T96 497Q125 511 162 519T248 527Q288 527 320 519T376 494T411 449T424 380V21Q424 -3 402 -3H401Q387 -3 381 7T374 46V71ZM203 34Q266 34 304 58T374 119V247Q344 254 311 258T240 263Q205 263 176 257T125 237T91
202T79 150Q79 88 114 61T203 34ZM350 600Q360 588 355 579T340 569H339Q330 569 321 580L245 660L170 580Q161 569 152 569H151Q141 569 136 578T141 600L215 688Q222 696 228 701T246 706H248Q259 706 265 701T279 688L350 600Z" />
<glyph unicode="&#xe3;" glyph-name="atilde" horiz-adv-x="491" d="M374 71Q341 36 301 16T196 -5Q160 -5 129 5T76 34T41 81T28 146Q28 185 43 214T86 262T152 290T237 299Q311 299 374 283V377Q374 438 339 462T246 487Q200 487 174 480T131 464T105 448T83
440Q75 440 69 445T62 461V462Q62 469 68 478T96 497Q125 511 162 519T248 527Q288 527 320 519T376 494T411 449T424 380V21Q424 -3 402 -3H401Q387 -3 381 7T374 46V71ZM203 34Q266 34 304 58T374 119V247Q344 254 311 258T240 263Q205 263 176 257T125 237T91
202T79 150Q79 88 114 61T203 34ZM304 589Q287 589 273 595T245 608T220 622T198 629Q171 629 160 602Q157 595 153 589T140 583H139Q128 583 125 592T124 614Q130 638 149 654T195 670Q211 670 226 664T254 651T278 637T301 631Q327 631 338 658Q341 665 345 671T358
677H359Q370 677 373 668T374 646Q368 622 350 606T304 589Z" />
<glyph unicode="&#xe4;" glyph-name="adieresis" horiz-adv-x="491" d="M374 71Q341 36 301 16T196 -5Q160 -5 129 5T76 34T41 81T28 146Q28 185 43 214T86 262T152 290T237 299Q311 299 374 283V377Q374 438 339 462T246 487Q200 487 174 480T131 464T105 448T83
440Q75 440 69 445T62 461V462Q62 469 68 478T96 497Q125 511 162 519T248 527Q288 527 320 519T376 494T411 449T424 380V21Q424 -3 402 -3H401Q387 -3 381 7T374 46V71ZM203 34Q266 34 304 58T374 119V247Q344 254 311 258T240 263Q205 263 176 257T125 237T91
202T79 150Q79 88 114 61T203 34ZM211 634Q211 620 201 611T177 601Q163 601 153 610T143 634Q143 648 153 658T177 668Q191 668 201 658T211 634ZM354 634Q354 620 344 611T320 601Q306 601 297 610T287 634Q287 648 296 658T320 668Q334 668 344 658T354 634Z"
/>
<glyph unicode="&#xe5;" glyph-name="aring" horiz-adv-x="491" d="M374 71Q341 36 301 16T196 -5Q160 -5 129 5T76 34T41 81T28 146Q28 185 43 214T86 262T152 290T237 299Q311 299 374 283V377Q374 438 339 462T246 487Q200 487 174 480T131 464T105 448T83
440Q75 440 69 445T62 461V462Q62 469 68 478T96 497Q125 511 162 519T248 527Q288 527 320 519T376 494T411 449T424 380V21Q424 -3 402 -3H401Q387 -3 381 7T374 46V71ZM203 34Q266 34 304 58T374 119V247Q344 254 311 258T240 263Q205 263 176 257T125 237T91
202T79 150Q79 88 114 61T203 34ZM336 659Q336 620 310 597T249 574Q214 574 188 597T161 659Q161 698 187 721T249 745Q283 745 309 722T336 659ZM198 659Q198 636 212 622T249 607Q270 607 285 621T300 659Q300 683 285 698T249 713Q227 713 213 698T198 659Z"
/>
<glyph unicode="&#xe6;" glyph-name="ae" horiz-adv-x="849" d="M197 -5Q160 -5 129 5T76 34T41 81T28 147Q28 185 43 213T86 260T152 288T237 298H374V377Q374 438 339 462T246 487Q200 487 174 480T131 464T105 448T83 440Q75 440 69 445T62 461V462Q62 469
68 478T96 497Q125 511 162 519T248 527Q315 527 359 503T416 422Q447 472 495 499T605 527Q653 527 692 513T760 470T803 394T819 284Q819 271 812 266T795 260H425V259Q425 149 475 93T623 37Q668 37 696 45T741 63T768 81T787 90Q808 90 808 71V70Q808 62 803
55T789 43Q762 24 722 10T618 -4Q543 -4 490 25T407 109Q390 84 370 63T324 27T267 4T197 -5ZM79 150Q79 88 114 61T203 34Q270 34 314 64T391 145Q374 196 374 259V260H240Q169 260 124 234T79 150ZM769 298Q768 350 756 386T723 445T671 478T605 489Q533 489
484 442T426 298H769Z" />
<glyph unicode="&#xe7;" glyph-name="ccedilla" horiz-adv-x="478" d="M434 45Q407 22 367 9T276 -4H260V-40Q298 -42 318 -59T339 -108Q339 -140 315 -157T256 -174Q220 -174 197 -160Q185 -153 185 -141V-140Q185 -133 189 -128T200 -123Q206 -123 210 -125T219
-130T233 -135T253 -138Q272 -138 284 -131T296 -107Q296 -92 285 -83T246 -73H238Q223 -73 223 -59V0Q132 17 82 85T32 262Q32 324 50 373T101 456T179 509T279 527Q367 527 419 492Q442 476 442 459V458Q442 449 436 443T421 437Q411 437 402 445T379 462T341
479T278 487Q234 487 199 472T137 428T97 357T83 262Q83 154 134 95T278 36Q320 36 345 45T386 65T411 86T431 95Q441 95 446 89T451 75V74Q451 59 434 45Z" />
<glyph unicode="&#xe8;" glyph-name="egrave" horiz-adv-x="507" d="M281 37Q326 37 354 45T399 63T426 81T445 90Q466 90 466 71V70Q466 62 461 55T447 43Q420 24 380 10T276 -4Q217 -4 172 14T95 67T48 149T32 259Q32 320 49 370T97 454T170 508T263 527Q311
527 350 513T418 469T461 393T477 283Q477 270 470 265T453 259H83Q83 149 133 93T281 37ZM427 297Q425 401 381 445T263 489Q191 489 142 442T84 297H427ZM170 664Q156 680 162 694T184 708H185Q194 708 200 703T215 686L275 598Q283 587 278 578T262 569H261Q253
569 244 579L170 664Z" />
<glyph unicode="&#xe9;" glyph-name="eacute" horiz-adv-x="507" d="M281 37Q326 37 354 45T399 63T426 81T445 90Q466 90 466 71V70Q466 62 461 55T447 43Q420 24 380 10T276 -4Q217 -4 172 14T95 67T48 149T32 259Q32 320 49 370T97 454T170 508T263 527Q311
527 350 513T418 469T461 393T477 283Q477 270 470 265T453 259H83Q83 149 133 93T281 37ZM427 297Q425 401 381 445T263 489Q191 489 142 442T84 297H427ZM283 579Q274 569 266 569H265Q254 569 249 578T252 598L312 686Q320 697 326 702T342 708H343Q358 708
364 694T357 664L283 579Z" />
<glyph unicode="&#xea;" glyph-name="ecircumflex" horiz-adv-x="507" d="M281 37Q326 37 354 45T399 63T426 81T445 90Q466 90 466 71V70Q466 62 461 55T447 43Q420 24 380 10T276 -4Q217 -4 172 14T95 67T48 149T32 259Q32 320 49 370T97 454T170 508T263 527Q311
527 350 513T418 469T461 393T477 283Q477 270 470 265T453 259H83Q83 149 133 93T281 37ZM427 297Q425 401 381 445T263 489Q191 489 142 442T84 297H427ZM366 600Q376 588 371 579T356 569H355Q346 569 337 580L261 660L186 580Q177 569 168 569H167Q157 569
152 578T157 600L231 688Q238 696 244 701T262 706H264Q275 706 281 701T295 688L366 600Z" />
<glyph unicode="&#xeb;" glyph-name="edieresis" horiz-adv-x="507" d="M281 37Q326 37 354 45T399 63T426 81T445 90Q466 90 466 71V70Q466 62 461 55T447 43Q420 24 380 10T276 -4Q217 -4 172 14T95 67T48 149T32 259Q32 320 49 370T97 454T170 508T263 527Q311
527 350 513T418 469T461 393T477 283Q477 270 470 265T453 259H83Q83 149 133 93T281 37ZM427 297Q425 401 381 445T263 489Q191 489 142 442T84 297H427ZM225 634Q225 620 215 611T191 601Q177 601 167 610T157 634Q157 648 167 658T191 668Q205 668 215 658T225
634ZM368 634Q368 620 358 611T334 601Q320 601 311 610T301 634Q301 648 310 658T334 668Q348 668 358 658T368 634Z" />
<glyph unicode="&#xec;" glyph-name="igrave" horiz-adv-x="197" d="M123 21Q123 8 116 3T99 -3H97Q87 -3 80 2T73 21V500Q73 524 95 524H96Q110 524 116 515T123 478V21ZM264 664Q250 680 256 694T278 708H279Q288 708 294 703T309 686L369 598Q377 587 372 578T356
569H355Q347 569 338 579L264 664Z" />
<glyph unicode="&#xed;" glyph-name="iacute" horiz-adv-x="197" d="M123 21Q123 8 116 3T99 -3H97Q87 -3 80 2T73 21V500Q73 524 95 524H96Q110 524 116 515T123 478V21ZM375 579Q366 569 358 569H357Q346 569 341 578T344 598L404 686Q412 697 418 702T434 708H435Q450
708 456 694T449 664L375 579Z" />
<glyph unicode="&#xee;" glyph-name="icircumflex" horiz-adv-x="197" d="M123 21Q123 8 116 3T99 -3H97Q87 -3 80 2T73 21V500Q73 524 95 524H96Q110 524 116 515T123 478V21ZM459 600Q469 588 464 579T449 569H448Q439 569 430 580L354 660L279 580Q270 569
261 569H260Q250 569 245 578T250 600L324 688Q331 696 337 701T355 706H357Q368 706 374 701T388 688L459 600Z" />
<glyph unicode="&#xef;" glyph-name="idieresis" horiz-adv-x="197" d="M123 21Q123 8 116 3T99 -3H97Q87 -3 80 2T73 21V500Q73 524 95 524H96Q110 524 116 515T123 478V21ZM318 634Q318 620 308 611T284 601Q270 601 260 610T250 634Q250 648 260 658T284 668Q298
668 308 658T318 634ZM461 634Q461 620 451 611T427 601Q413 601 404 610T394 634Q394 648 403 658T427 668Q441 668 451 658T461 634Z" />
<glyph unicode="&#xf0;" glyph-name="eth" horiz-adv-x="548" d="M344 635Q422 582 469 493T517 272Q517 203 499 151T449 65T372 13T274 -4Q220 -4 175 14T99 67T50 150T32 260Q32 321 49 370T97 453T171 507T267 526Q300 526 326 520T373 503T411 476T445 440Q392
553 307 609L223 552Q217 548 212 548H211Q200 548 196 559T203 578L276 628Q256 639 234 646T187 660Q164 665 164 681V682Q164 693 170 696T184 700Q190 700 200 698Q261 683 314 654L382 700Q388 704 393 704H394Q400 704 404 701T409 692T408 681T397 671L344
635ZM83 260Q83 156 133 96T276 35Q366 35 416 94T466 260Q466 311 453 353T416 425T357 471T276 487Q185 487 134 426T83 260Z" />
<glyph unicode="&#xf1;" glyph-name="ntilde" horiz-adv-x="551" d="M485 21Q485 8 478 3T461 -3H459Q449 -3 442 2T435 21V382Q435 413 427 433T405 464T372 480T331 485Q273 485 220 458T121 397V21Q121 8 114 3T97 -3H95Q85 -3 78 2T71 21V500Q71 524 93 524H94Q108
524 114 515T121 478V438Q166 473 223 500T350 527Q377 527 401 521T444 499T474 456T485 388V21ZM337 589Q320 589 306 595T278 608T253 622T231 629Q204 629 193 602Q190 595 186 589T173 583H172Q161 583 158 592T157 614Q163 638 182 654T228 670Q244 670 259
664T287 651T311 637T334 631Q360 631 371 658Q374 665 378 671T391 677H392Q403 677 406 668T407 646Q401 622 383 606T337 589Z" />
<glyph unicode="&#xf2;" glyph-name="ograve" horiz-adv-x="549" d="M517 261Q517 199 500 150T450 67T374 14T274 -4Q220 -4 176 14T99 66T50 150T32 261Q32 322 49 371T99 455T175 508T274 527Q329 527 373 509T450 456T499 372T517 261ZM83 261Q83 153 134
94T274 35Q364 35 415 94T466 261Q466 368 415 428T274 488Q185 488 134 428T83 261ZM181 664Q167 680 173 694T195 708H196Q205 708 211 703T226 686L286 598Q294 587 289 578T273 569H272Q264 569 255 579L181 664Z" />
<glyph unicode="&#xf3;" glyph-name="oacute" horiz-adv-x="549" d="M517 261Q517 199 500 150T450 67T374 14T274 -4Q220 -4 176 14T99 66T50 150T32 261Q32 322 49 371T99 455T175 508T274 527Q329 527 373 509T450 456T499 372T517 261ZM83 261Q83 153 134
94T274 35Q364 35 415 94T466 261Q466 368 415 428T274 488Q185 488 134 428T83 261ZM294 579Q285 569 277 569H276Q265 569 260 578T263 598L323 686Q331 697 337 702T353 708H354Q369 708 375 694T368 664L294 579Z" />
<glyph unicode="&#xf4;" glyph-name="ocircumflex" horiz-adv-x="549" d="M517 261Q517 199 500 150T450 67T374 14T274 -4Q220 -4 176 14T99 66T50 150T32 261Q32 322 49 371T99 455T175 508T274 527Q329 527 373 509T450 456T499 372T517 261ZM83 261Q83 153
134 94T274 35Q364 35 415 94T466 261Q466 368 415 428T274 488Q185 488 134 428T83 261ZM377 600Q387 588 382 579T367 569H366Q357 569 348 580L272 660L197 580Q188 569 179 569H178Q168 569 163 578T168 600L242 688Q249 696 255 701T273 706H275Q286 706 292
701T306 688L377 600Z" />
<glyph unicode="&#xf5;" glyph-name="otilde" horiz-adv-x="549" d="M517 261Q517 199 500 150T450 67T374 14T274 -4Q220 -4 176 14T99 66T50 150T32 261Q32 322 49 371T99 455T175 508T274 527Q329 527 373 509T450 456T499 372T517 261ZM83 261Q83 153 134
94T274 35Q364 35 415 94T466 261Q466 368 415 428T274 488Q185 488 134 428T83 261ZM330 589Q313 589 299 595T271 608T246 622T224 629Q197 629 186 602Q183 595 179 589T166 583H165Q154 583 151 592T150 614Q156 638 175 654T221 670Q237 670 252 664T280 651T304
637T327 631Q353 631 364 658Q367 665 371 671T384 677H385Q396 677 399 668T400 646Q394 622 376 606T330 589Z" />
<glyph unicode="&#xf6;" glyph-name="odieresis" horiz-adv-x="549" d="M517 261Q517 199 500 150T450 67T374 14T274 -4Q220 -4 176 14T99 66T50 150T32 261Q32 322 49 371T99 455T175 508T274 527Q329 527 373 509T450 456T499 372T517 261ZM83 261Q83 153 134
94T274 35Q364 35 415 94T466 261Q466 368 415 428T274 488Q185 488 134 428T83 261ZM236 634Q236 620 226 611T202 601Q188 601 178 610T168 634Q168 648 178 658T202 668Q216 668 226 658T236 634ZM379 634Q379 620 369 611T345 601Q331 601 322 610T312 634Q312
648 321 658T345 668Q359 668 369 658T379 634Z" />
<glyph unicode="&#xf7;" glyph-name="divide" horiz-adv-x="472" d="M440 345Q440 336 435 330T419 323H54Q43 323 38 329T32 345V347Q32 355 37 361T54 368H419Q430 368 435 362T440 347V345ZM198 197Q198 214 209 225T236 236Q253 236 264 225T275 197Q275 180
264 170T236 159Q220 159 209 169T198 197ZM198 493Q198 510 209 521T236 532Q253 532 264 521T275 493Q275 477 264 466T236 455Q220 455 209 466T198 493Z" />
<glyph unicode="&#xf8;" glyph-name="oslash" horiz-adv-x="549" d="M451 454Q483 419 500 371T517 261Q517 199 500 150T450 67T374 14T274 -4Q186 -4 124 44L78 -14Q67 -28 58 -28H57Q45 -28 40 -18T44 5L96 70Q65 104 49 152T32 261Q32 322 49 371T99 455T175
508T274 527Q318 527 355 515T423 480L464 531Q475 545 484 545H485Q497 545 502 535T498 512L451 454ZM466 261Q466 310 455 349T422 417L150 77Q198 35 274 35Q364 35 415 94T466 261ZM83 261Q83 165 125 106L396 446Q346 488 274 488Q185 488 134 428T83 261Z"
/>
<glyph unicode="&#xf9;" glyph-name="ugrave" horiz-adv-x="547" d="M207 -6Q177 -6 151 1T107 23T77 65T66 130V500Q66 513 73 518T90 524H93Q103 524 110 519T117 500V135Q117 105 124 86T145 55T175 40T214 35Q274 35 326 60T424 118V500Q424 513 431 518T448
524H450Q460 524 467 519T474 500V21Q474 -3 452 -3H451Q437 -3 431 7T424 46V76Q380 43 324 19T207 -6ZM179 664Q165 680 171 694T193 708H194Q203 708 209 703T224 686L284 598Q292 587 287 578T271 569H270Q262 569 253 579L179 664Z" />
<glyph unicode="&#xfa;" glyph-name="uacute" horiz-adv-x="547" d="M207 -6Q177 -6 151 1T107 23T77 65T66 130V500Q66 513 73 518T90 524H93Q103 524 110 519T117 500V135Q117 105 124 86T145 55T175 40T214 35Q274 35 326 60T424 118V500Q424 513 431 518T448
524H450Q460 524 467 519T474 500V21Q474 -3 452 -3H451Q437 -3 431 7T424 46V76Q380 43 324 19T207 -6ZM292 579Q283 569 275 569H274Q263 569 258 578T261 598L321 686Q329 697 335 702T351 708H352Q367 708 373 694T366 664L292 579Z" />
<glyph unicode="&#xfb;" glyph-name="ucircumflex" horiz-adv-x="547" d="M207 -6Q177 -6 151 1T107 23T77 65T66 130V500Q66 513 73 518T90 524H93Q103 524 110 519T117 500V135Q117 105 124 86T145 55T175 40T214 35Q274 35 326 60T424 118V500Q424 513 431
518T448 524H450Q460 524 467 519T474 500V21Q474 -3 452 -3H451Q437 -3 431 7T424 46V76Q380 43 324 19T207 -6ZM375 600Q385 588 380 579T365 569H364Q355 569 346 580L270 660L195 580Q186 569 177 569H176Q166 569 161 578T166 600L240 688Q247 696 253 701T271
706H273Q284 706 290 701T304 688L375 600Z" />
<glyph unicode="&#xfc;" glyph-name="udieresis" horiz-adv-x="547" d="M207 -6Q177 -6 151 1T107 23T77 65T66 130V500Q66 513 73 518T90 524H93Q103 524 110 519T117 500V135Q117 105 124 86T145 55T175 40T214 35Q274 35 326 60T424 118V500Q424 513 431 518T448
524H450Q460 524 467 519T474 500V21Q474 -3 452 -3H451Q437 -3 431 7T424 46V76Q380 43 324 19T207 -6ZM234 634Q234 620 224 611T200 601Q186 601 176 610T166 634Q166 648 176 658T200 668Q214 668 224 658T234 634ZM377 634Q377 620 367 611T343 601Q329 601
320 610T310 634Q310 648 319 658T343 668Q357 668 367 658T377 634Z" />
<glyph unicode="&#xfd;" glyph-name="yacute" horiz-adv-x="500" d="M205 -143Q197 -162 182 -162H181Q167 -162 161 -153T161 -128L232 36L33 486Q26 501 34 511T55 521H56Q71 521 80 500L256 96H257L426 502Q434 521 449 521H450Q464 521 470 511T470 487L205
-143ZM276 579Q267 569 259 569H258Q247 569 242 578T245 598L305 686Q313 697 319 702T335 708H336Q351 708 357 694T350 664L276 579Z" />
<glyph unicode="&#xfe;" glyph-name="thorn" horiz-adv-x="551" d="M71 679Q71 703 93 703H94Q108 703 114 694T121 657V428Q136 446 156 463T201 495T255 518T319 527Q356 527 392 515T456 473T501 394T519 269Q519 192 499 140T448 57T376 12T295 -1Q232 -1
192 16T121 60V-141Q121 -154 114 -159T97 -165H95Q85 -165 78 -160T71 -141V679ZM311 486Q279 486 252 477T202 453T158 419T121 379V108Q152 74 190 57T286 39Q318 39 350 49T409 84T451 152T468 264Q468 331 454 374T417 442T366 476T311 486Z" />
<glyph unicode="&#xff;" glyph-name="ydieresis" horiz-adv-x="500" d="M205 -143Q197 -162 182 -162H181Q167 -162 161 -153T161 -128L232 36L33 486Q26 501 34 511T55 521H56Q71 521 80 500L256 96H257L426 502Q434 521 449 521H450Q464 521 470 511T470 487L205
-143ZM218 634Q218 620 208 611T184 601Q170 601 160 610T150 634Q150 648 160 658T184 668Q198 668 208 658T218 634ZM361 634Q361 620 351 611T327 601Q313 601 304 610T294 634Q294 648 303 658T327 668Q341 668 351 658T361 634Z" />
<glyph unicode="&#x131;" glyph-name="dotlessi" horiz-adv-x="197" d="M123 21Q123 8 116 3T99 -3H97Q87 -3 80 2T73 21V500Q73 524 95 524H96Q110 524 116 515T123 478V21Z" />
<glyph unicode="&#x141;" glyph-name="Lslash" horiz-adv-x="538" d="M139 287V44H486Q494 44 500 39T507 23V21Q507 10 501 5T486 0H112Q101 0 94 7T86 26V265L30 241Q20 237 12 238T-1 250Q-5 260 -1 267T12 279L86 310V677Q86 691 93 697T112 703H113Q124 703
131 697T139 677V333L346 422Q356 426 364 425T377 413Q382 403 378 396T364 384L139 287Z" />
<glyph unicode="&#x142;" glyph-name="lslash" horiz-adv-x="195" d="M123 447L178 484Q184 489 191 488T204 479Q214 464 198 454L123 403V21Q123 8 116 3T99 -3H97Q87 -3 80 2T73 21V369L22 335Q15 330 8 331T-3 339Q-13 355 2 365L73 413V679Q73 703 95 703H96Q110
703 116 694T123 657V447Z" />
<glyph unicode="&#x152;" glyph-name="OE" horiz-adv-x="955" d="M500 655H394Q318 655 262 639T169 586T114 491T96 350Q96 267 114 209T169 114T262 61T394 44H500V655ZM393 0Q306 0 241 19T131 81T64 189T41 349Q41 535 130 617T394 700H890Q898 700 904 695T911
679V677Q911 666 905 661T890 655H554V383H801Q809 383 815 378T822 362V360Q822 349 816 344T801 339H554V44H904Q912 44 918 39T925 23V21Q925 10 919 5T904 0H393Z" />
<glyph unicode="&#x153;" glyph-name="oe" horiz-adv-x="941" d="M274 -4Q220 -4 176 14T99 66T50 150T32 261Q32 322 49 371T99 455T175 508T274 527Q354 527 409 489T491 380Q517 449 571 488T697 527Q745 527 784 513T852 469T895 393T911 283Q911 270 904
265T887 259H517Q517 149 567 93T715 37Q760 37 788 45T833 63T860 81T879 90Q900 90 900 71V70Q900 62 895 55T881 43Q854 24 814 10T710 -4Q625 -4 570 33T490 138Q464 70 409 33T274 -4ZM83 261Q83 153 134 94T274 35Q364 35 415 94T466 261Q466 368 415 428T274
488Q185 488 134 428T83 261ZM861 297Q859 401 815 445T697 489Q625 489 576 442T518 297H861Z" />
<glyph unicode="&#x160;" glyph-name="Scaron" horiz-adv-x="508" d="M238 -4Q172 -4 122 11T43 49Q22 65 22 83V84Q22 94 28 100T44 107Q55 107 65 97T95 73T148 50T237 39Q277 39 310 47T368 74T405 120T418 189Q418 228 404 252T365 292T307 318T236 339Q189
351 153 366T91 402T52 453T39 526Q39 564 52 596T93 653T159 690T250 704Q310 704 350 692T416 662Q438 647 438 628V627Q438 616 432 611T416 605Q405 605 395 613T369 632T325 652T251 661Q208 661 178 651T128 624T99 582T90 530Q90 494 102 471T135 432T185
406T251 387Q304 373 345 358T413 322T455 270T470 193Q470 142 453 105T405 44T332 8T238 -4ZM283 745Q277 738 270 734T252 729H248Q237 729 230 733T217 745L155 812Q144 823 148 833T163 843H164Q171 843 182 834L250 771L319 834Q330 843 337 843H338Q348
843 352 833T346 812L283 745Z" />
<glyph unicode="&#x161;" glyph-name="scaron" horiz-adv-x="425" d="M391 151Q391 79 346 38T202 -4Q155 -4 120 5T58 30Q33 45 33 62V63Q33 72 38 78T54 84Q62 84 71 77T96 60T136 43T200 35Q272 35 307 64T342 147Q342 170 335 186T312 215T269 235T202 250Q127
262 83 292T39 389Q39 457 87 492T214 527Q251 527 283 521T339 502Q365 489 365 472V470Q365 449 346 449Q338 449 331 455T310 468T274 482T215 488Q86 488 86 393Q86 370 93 354T116 327T158 307T222 293Q263 287 294 277T347 251T380 210T391 151ZM244 587Q237
579 231 574T213 569H211Q200 569 194 574T180 587L106 675Q95 687 100 696T116 706H117Q126 706 135 695L210 615L286 695Q295 706 304 706H305Q315 706 320 697T315 675L244 587Z" />
<glyph unicode="&#x178;" glyph-name="Ydieresis" horiz-adv-x="548" d="M302 295V23Q302 9 295 3T276 -3H274Q263 -3 256 3T248 23V293L33 663Q24 679 31 691T53 703H54Q69 703 79 684L275 343H277L474 686Q479 694 484 698T497 703H498Q512 703 519 693T518
667L302 295ZM239 773Q239 759 229 749T205 739Q191 739 181 749T171 773Q171 787 181 797T205 807Q219 807 229 797T239 773ZM382 773Q382 759 372 749T348 739Q334 739 325 749T315 773Q315 787 324 797T348 807Q362 807 372 797T382 773Z" />
<glyph unicode="&#x17d;" glyph-name="Zcaron" horiz-adv-x="530" d="M75 44V42H482Q493 42 497 36T502 22V20Q502 12 498 6T482 0H39Q27 0 22 7T17 23V28Q17 41 20 48T30 64L453 656V657H61Q50 657 46 663T41 678V680Q41 688 45 694T62 700H488Q500 700 505 693T510
677V672Q510 658 507 651T497 635L75 44ZM314 745Q308 738 301 734T283 729H279Q268 729 261 733T248 745L186 812Q175 823 179 833T194 843H195Q202 843 213 834L281 771L350 834Q361 843 368 843H369Q379 843 383 833T377 812L314 745Z" />
<glyph unicode="&#x17e;" glyph-name="zcaron" horiz-adv-x="456" d="M416 521Q435 521 435 502V498Q435 481 423 466L90 39H414Q424 39 428 34T432 21V19Q432 0 414 0H52Q33 0 33 19V24Q33 36 37 42T48 58L378 482H70Q51 482 51 501V503Q51 511 55 516T70 521H416ZM280
587Q273 579 267 574T249 569H247Q236 569 230 574T216 587L142 675Q131 687 136 696T152 706H153Q162 706 171 695L246 615L322 695Q331 706 340 706H341Q351 706 356 697T351 675L280 587Z" />
<glyph unicode="&#x192;" glyph-name="florin" horiz-adv-x="328" d="M158 387L104 -60Q102 -71 96 -78T79 -85H77Q63 -85 57 -76T53 -52L106 387H56Q35 387 35 406V408Q35 427 56 427H111L129 573Q137 643 173 673T267 703Q278 703 288 702T306 699Q323 694 323
681V680Q323 662 303 662H278Q239 662 213 642T181 569L163 427H257Q278 427 278 408V406Q278 387 257 387H158Z" />
<glyph unicode="&#x2c6;" glyph-name="circumflex" d="M310 600Q320 588 315 579T300 569H299Q290 569 281 580L205 660L130 580Q121 569 112 569H111Q101 569 96 578T101 600L175 688Q182 696 188 701T206 706H208Q219 706 225 701T239 688L310 600Z" />
<glyph unicode="&#x2c7;" glyph-name="caron" d="M239 587Q232 579 226 574T208 569H206Q195 569 189 574T175 587L101 675Q90 687 95 696T111 706H112Q121 706 130 695L205 615L281 695Q290 706 299 706H300Q310 706 315 697T310 675L239 587Z" />
<glyph unicode="&#x2d8;" glyph-name="breve" horiz-adv-x="412" d="M206 575Q161 575 133 599T93 660Q88 674 92 683T107 692H108Q116 692 121 686T131 668Q145 638 163 626T206 614Q231 614 249 626T281 668Q286 679 291 685T304 692H305Q316 692 320 683T319
660Q307 624 279 600T206 575Z" />
<glyph unicode="&#x2d9;" glyph-name="dotaccent" horiz-adv-x="412" d="M241 635Q241 621 231 611T207 601Q193 601 183 611T173 635Q173 649 183 659T207 669Q221 669 231 659T241 635Z" />
<glyph unicode="&#x2da;" glyph-name="ring" horiz-adv-x="412" d="M293 659Q293 620 267 597T206 574Q171 574 145 597T118 659Q118 698 144 721T206 745Q240 745 266 722T293 659ZM155 659Q155 636 169 622T206 607Q227 607 242 621T257 659Q257 683 242 698T206
713Q184 713 170 698T155 659Z" />
<glyph unicode="&#x2db;" glyph-name="ogonek" horiz-adv-x="400" d="M145 -93Q145 -64 165 -40T208 0H253Q224 -22 208 -42T192 -85Q192 -105 203 -116T241 -128H262Q277 -128 277 -143V-144Q277 -158 262 -161Q248 -164 227 -164Q189 -164 167 -145T145 -93Z" />
<glyph unicode="&#x2dc;" glyph-name="tilde" horiz-adv-x="412" d="M259 589Q242 589 228 595T200 608T175 622T153 629Q126 629 115 602Q112 595 108 589T95 583H94Q83 583 80 592T79 614Q85 638 104 654T150 670Q166 670 181 664T209 651T233 637T256 631Q282
631 293 658Q296 665 300 671T313 677H314Q325 677 328 668T329 646Q323 622 305 606T259 589Z" />
<glyph unicode="&#x2dd;" glyph-name="hungarumlaut" horiz-adv-x="412" d="M151 569Q142 569 138 575T138 595L178 686Q182 694 187 701T204 708H205Q220 708 225 697T222 672L172 585Q169 579 165 574T152 569H151ZM269 569Q260 569 256 575T256 595L296 686Q300
694 305 701T322 708H323Q338 708 343 697T340 672L290 585Q287 579 283 574T270 569H269Z" />
<glyph unicode="&#x2013;" glyph-name="endash" horiz-adv-x="393" d="M46 265Q35 265 30 271T24 287V289Q24 297 29 303T46 310H348Q359 310 364 304T369 289V287Q369 278 364 272T348 265H46Z" />
<glyph unicode="&#x2014;" glyph-name="emdash" horiz-adv-x="658" d="M46 265Q35 265 30 271T24 287V289Q24 297 29 303T46 310H613Q624 310 629 304T634 289V287Q634 278 629 272T613 265H46Z" />
<glyph unicode="&#x2018;" glyph-name="quoteleft" horiz-adv-x="144" d="M116 686Q116 676 101 669Q76 658 76 637Q76 628 81 624T92 615Q101 609 104 603T108 585Q108 571 98 561T71 551Q54 551 42 563T30 605Q30 647 47 670T93 699Q106 701 111 697T116 687V686Z" />
<glyph unicode="&#x2019;" glyph-name="quoteright" horiz-adv-x="144" d="M28 567Q28 577 43 584Q68 595 68 616Q68 625 63 629T52 638Q43 644 40 650T36 668Q36 682 46 692T73 702Q90 702 102 690T114 648Q114 606 97 583T51 554Q38 552 33 556T28 566V567Z" />
<glyph unicode="&#x201a;" glyph-name="quotesinglbase" horiz-adv-x="144" d="M28 -54Q28 -44 43 -37Q68 -26 68 -5Q68 4 63 8T52 17Q43 23 40 29T36 47Q36 61 46 71T73 81Q90 81 102 69T114 27Q114 -15 97 -38T51 -67Q38 -69 33 -65T28 -55V-54Z" />
<glyph unicode="&#x201c;" glyph-name="quotedblleft" horiz-adv-x="261" d="M116 686Q116 676 101 669Q76 658 76 637Q76 628 81 624T92 615Q101 609 104 603T108 585Q108 571 98 561T71 551Q54 551 42 563T30 605Q30 647 47 670T93 699Q106 701 111 697T116
687V686ZM233 686Q233 676 218 669Q193 658 193 637Q193 628 198 624T209 615Q218 609 221 603T225 585Q225 571 215 561T188 551Q171 551 159 563T147 605Q147 647 164 670T210 699Q223 701 228 697T233 687V686Z" />
<glyph unicode="&#x201d;" glyph-name="quotedblright" horiz-adv-x="261" d="M28 567Q28 577 43 584Q68 595 68 616Q68 625 63 629T52 638Q43 644 40 650T36 668Q36 682 46 692T73 702Q90 702 102 690T114 648Q114 606 97 583T51 554Q38 552 33 556T28 566V567ZM145
567Q145 577 160 584Q185 595 185 616Q185 625 180 629T169 638Q160 644 157 650T153 668Q153 682 163 692T190 702Q207 702 219 690T231 648Q231 606 214 583T168 554Q155 552 150 556T145 566V567Z" />
<glyph unicode="&#x201e;" glyph-name="quotedblbase" horiz-adv-x="261" d="M28 -54Q28 -44 43 -37Q68 -26 68 -5Q68 4 63 8T52 17Q43 23 40 29T36 47Q36 61 46 71T73 81Q90 81 102 69T114 27Q114 -15 97 -38T51 -67Q38 -69 33 -65T28 -55V-54ZM145 -54Q145 -44
160 -37Q185 -26 185 -5Q185 4 180 8T169 17Q160 23 157 29T153 47Q153 61 163 71T190 81Q207 81 219 69T231 27Q231 -15 214 -38T168 -67Q155 -69 150 -65T145 -55V-54Z" />
<glyph unicode="&#x2020;" glyph-name="dagger" horiz-adv-x="417" d="M193 464Q170 461 145 458Q124 456 100 455T54 453Q38 453 32 459T25 477V478Q25 489 31 495T54 502Q75 502 99 501T145 497Q170 494 193 492Q190 523 188 555Q186 582 185 614T183 675Q183
690 190 697T208 704H210Q221 704 228 697T235 675Q235 646 234 614T230 555Q228 523 226 492Q250 494 274 497Q294 499 318 500T364 502Q380 502 386 496T393 478V477Q393 466 387 460T364 453Q342 453 318 454T274 458Q250 460 226 463Q228 442 231 420Q233 401
234 378T236 335Q236 293 235 232T232 111Q230 42 229 -32Q229 -43 224 -48T210 -53H208Q200 -53 195 -48T189 -32Q187 42 185 111Q183 170 183 231T182 334Q182 355 183 377T187 420Q190 442 193 464Z" />
<glyph unicode="&#x2021;" glyph-name="daggerdbl" horiz-adv-x="417" d="M236 326Q236 305 235 280T231 232Q228 206 226 181Q250 183 274 186Q294 188 318 189T364 191Q380 191 386 185T393 167V166Q393 155 387 149T364 142Q342 142 318 143T274 147Q250 149
226 152Q228 122 230 91Q232 65 233 34T235 -24Q235 -39 228 -46T210 -53H208Q197 -53 190 -46T183 -24Q183 2 184 33T188 91Q190 122 193 152Q170 149 145 147Q124 145 100 144T54 142Q38 142 32 148T25 166V167Q25 178 31 184T54 191Q75 191 99 189T145 185Q170
182 193 180Q190 206 187 232Q185 254 184 279T182 326Q182 347 183 372T187 419Q190 445 193 471Q170 468 145 465Q124 463 100 462T54 460Q38 460 32 466T25 484V485Q25 496 31 502T54 509Q75 509 99 508T145 504Q170 501 193 499Q190 529 188 560Q186 586 185
617T183 675Q183 690 190 697T208 704H210Q221 704 228 697T235 675Q235 648 234 617T230 560Q228 529 226 499Q250 501 274 504Q294 506 318 507T364 509Q380 509 386 503T393 485V484Q393 473 387 467T364 460Q342 460 318 461T274 465Q250 467 226 470Q228 445
231 419Q233 397 234 372T236 326Z" />
<glyph unicode="&#x2022;" glyph-name="bullet" horiz-adv-x="284" d="M259 301Q259 246 226 216T142 185Q93 185 59 215T25 301Q25 355 59 386T142 417Q192 417 225 386T259 301Z" />
<glyph unicode="&#x2026;" glyph-name="ellipsis" horiz-adv-x="465" d="M110 34Q110 17 99 7T71 -4Q54 -4 44 6T33 34Q33 50 43 61T71 73Q87 73 98 62T110 34ZM271 34Q271 17 260 7T232 -4Q216 -4 205 6T194 34Q194 50 205 61T232 73Q249 73 260 62T271 34ZM433
34Q433 17 422 7T394 -4Q377 -4 367 6T356 34Q356 50 366 61T394 73Q410 73 421 62T433 34Z" />
<glyph unicode="&#x2030;" glyph-name="perthousand" horiz-adv-x="1060" d="M80 529Q80 463 108 428T184 393Q231 393 259 428T288 529Q288 596 260 632T184 668Q136 668 108 632T80 529ZM335 531Q335 487 323 455T290 401T242 368T184 357Q153 357 126 368T77
400T44 454T32 531Q32 574 44 606T77 660T125 693T184 704Q214 704 241 693T290 661T323 607T335 531ZM143 -23Q134 -37 123 -37H122Q111 -37 105 -27T108 -3L574 718Q583 732 594 732H595Q606 732 612 722T609 698L143 -23ZM429 169Q429 103 457 68T533 32Q580
32 608 67T637 169Q637 235 609 271T533 307Q485 307 457 271T429 169ZM684 170Q684 126 672 94T639 40T591 7T533 -4Q502 -4 475 7T426 39T393 93T381 170Q381 213 393 246T426 300T474 333T533 344Q563 344 590 333T639 301T672 246T684 170ZM772 169Q772 103
800 68T876 32Q923 32 951 67T980 169Q980 235 952 271T876 307Q828 307 800 271T772 169ZM1027 170Q1027 126 1015 94T982 40T934 7T876 -4Q845 -4 818 7T769 39T736 93T724 170Q724 213 736 246T769 300T817 333T876 344Q906 344 933 333T982 301T1015 246T1027
170Z" />
<glyph unicode="&#x2039;" glyph-name="guilsinglleft" horiz-adv-x="259" d="M37 235Q26 249 26 259V261Q26 271 37 285L180 461Q191 477 203 477H204Q218 477 224 465T220 439L80 261V259L220 81Q231 67 225 55T204 43H203Q191 43 180 59L37 235Z" />
<glyph unicode="&#x203a;" glyph-name="guilsinglright" horiz-adv-x="259" d="M79 59Q68 43 56 43H55Q41 43 35 55T39 81L179 259V261L39 439Q28 453 34 465T55 477H56Q68 477 79 461L222 285Q233 271 233 261V259Q233 249 222 235L79 59Z" />
<glyph unicode="&#x2044;" glyph-name="fraction" horiz-adv-x="193" d="M313 716Q324 733 335 733H336Q348 733 353 723T350 698L-120 -21Q-131 -38 -142 -38H-143Q-155 -38 -160 -28T-157 -3L313 716Z" />
<glyph unicode="&#x20ac;" glyph-name="Euro" horiz-adv-x="591" d="M143 278Q157 160 213 100T362 39Q413 39 443 49T493 72T524 95T547 106Q556 106 562 100T568 86V85Q568 77 564 71T554 60Q524 34 478 15T361 -4Q250 -4 178 67T89 278H35Q26 278 21 283T16
297V298Q16 306 21 311T35 317H86Q85 325 85 334T85 352Q85 361 85 370T86 388H35Q26 388 21 393T16 407V409Q16 417 21 422T35 428H90Q99 495 124 546T185 633T268 686T367 704Q431 704 470 691T535 658Q554 644 554 629V628Q554 618 549 613T535 607Q522 607
512 615T485 634T442 652T370 661Q281 661 221 602T144 428H387Q396 428 401 423T406 409V407Q406 399 401 394T387 388H140Q139 380 139 371T139 354Q139 344 139 335T140 317H368Q377 317 382 312T387 298V297Q387 289 382 284T368 278H143Z" />
<glyph unicode="&#x2122;" glyph-name="trademark" horiz-adv-x="617" d="M151 444Q151 433 145 428T129 422H127Q118 422 112 427T105 444V664H34Q25 664 21 669T16 681V683Q16 690 20 695T34 700H223Q232 700 236 695T241 683V681Q241 674 237 669T223 664H151V444ZM304
422Q285 422 285 441V674Q285 688 292 694T311 700H328Q342 700 349 694T361 677L425 494H426L491 677Q495 688 502 694T524 700H542Q553 700 560 694T568 674V443Q568 432 562 427T547 422H545Q537 422 531 427T524 443V659H523L444 437Q439 422 425 422H423Q414
422 410 426T403 437L325 659H324V440Q324 430 319 426T306 422H304Z" />
<glyph unicode="&#x2212;" glyph-name="minus" horiz-adv-x="472" d="M439 345Q439 336 434 330T418 323H55Q43 323 38 329T33 345V347Q33 355 38 361T55 368H418Q429 368 434 362T439 347V345Z" />
<glyph unicode="&#xfb01;" glyph-name="fi" horiz-adv-x="457" d="M28 483Q17 483 13 488T8 501V503Q8 511 12 516T28 521H80V573Q80 641 114 672T202 703Q230 703 247 699Q259 696 263 691T268 679V678Q268 658 245 660Q239 660 230 661T214 662Q173 662 152
643T130 570V521H239Q250 521 254 516T259 503V501Q259 493 255 488T239 483H130V21Q130 8 123 3T106 -3H104Q94 -3 87 2T80 21V483H28ZM393 635Q393 621 383 611T359 601Q345 601 335 611T325 635Q325 649 335 659T359 669Q373 669 383 659T393 635ZM383 21Q383
8 376 3T359 -3H357Q347 -3 340 2T333 21V500Q333 524 355 524H356Q370 524 376 515T383 478V21Z" />
<glyph unicode="&#xfb02;" glyph-name="fl" horiz-adv-x="454" d="M28 483Q17 483 13 488T8 501V503Q8 511 12 516T28 521H80V573Q80 641 114 672T202 703Q230 703 247 699Q259 696 263 691T268 679V678Q268 658 245 660Q239 660 230 661T214 662Q173 662 152
643T130 570V521H239Q250 521 254 516T259 503V501Q259 493 255 488T239 483H130V21Q130 8 123 3T106 -3H104Q94 -3 87 2T80 21V483H28ZM383 21Q383 8 376 3T359 -3H357Q347 -3 340 2T332 21V679Q332 692 338 697T355 703H356Q370 703 376 694T383 657V21Z" />
</font>
</defs>
</svg>
